{
copyright = "Copyright \U00A9 2013 by Daigo Fujiwara. See LICENSE";
date = "2013-09-07 15:30:27 +0000";
designer = "Daigo Fujiwara";
designerURL = "http://daigofuji.github.com";
familyName = "bbclub-font";
featurePrefixes = (
{
automatic = 1;
code = "languagesystem DFLT dflt;\012languagesystem latn dflt;\012";
name = Languagesystems;
}
);
fontMaster = (
{
ascender = 800;
capHeight = 700;
descender = "-200";
id = "D4A81252-B0CF-4F3E-9514-5651FCA26467";
xHeight = 500;
}
);
glyphs = (
{
glyphname = A;
lastChange = "2013-09-08 12:13:34 -0500";
layers = (
{
layerId = "D4A81252-B0CF-4F3E-9514-5651FCA26467";
name = Regular;
paths = (
{
closed = 1;
nodes = (
"472 291 OFFCURVE",
"469 329 OFFCURVE",
"432 356 CURVE",
"469 382 OFFCURVE",
"472 420 OFFCURVE",
"479 439 CURVE SMOOTH",
"489 472 OFFCURVE",
"497 490 OFFCURVE",
"520 505 CURVE",
"437 553 OFFCURVE",
"478 597 OFFCURVE",
"408 666 CURVE SMOOTH",
"349 725 OFFCURVE",
"256 730 OFFCURVE",
"191 680 CURVE",
"173 700 OFFCURVE",
"147 712 OFFCURVE",
"118 712 CURVE SMOOTH",
"63 712 OFFCURVE",
"20 669 OFFCURVE",
"20 615 CURVE SMOOTH",
"20 604 OFFCURVE",
"22 593 OFFCURVE",
"26 581 CURVE",
"35 601 OFFCURVE",
"53 614 OFFCURVE",
"75 614 CURVE SMOOTH",
"107 614 OFFCURVE",
"132 587 OFFCURVE",
"132 553 CURVE SMOOTH",
"132 442 LINE SMOOTH",
"132 430 OFFCURVE",
"127 380 OFFCURVE",
"60 356 CURVE",
"127 331 OFFCURVE",
"132 281 OFFCURVE",
"132 269 CURVE SMOOTH",
"132 157 LINE SMOOTH",
"132 124 OFFCURVE",
"107 97 OFFCURVE",
"75 97 CURVE SMOOTH",
"53 97 OFFCURVE",
"35 110 OFFCURVE",
"26 130 CURVE",
"22 118 OFFCURVE",
"20 107 OFFCURVE",
"20 96 CURVE SMOOTH",
"20 42 OFFCURVE",
"63 -1 OFFCURVE",
"118 -1 CURVE SMOOTH",
"147 -1 OFFCURVE",
"173 11 OFFCURVE",
"191 31 CURVE",
"256 -19 OFFCURVE",
"349 -14 OFFCURVE",
"408 45 CURVE SMOOTH",
"478 114 OFFCURVE",
"437 158 OFFCURVE",
"520 206 CURVE",
"497 221 OFFCURVE",
"489 239 OFFCURVE",
"479 272 CURVE SMOOTH"
);
},
{
closed = 1;
nodes = (
"429 110 OFFCURVE",
"421 88 OFFCURVE",
"393 61 CURVE SMOOTH",
"337 5 OFFCURVE",
"245 7 OFFCURVE",
"188 63 CURVE",
"177 36 OFFCURVE",
"148 20 OFFCURVE",
"118 20 CURVE SMOOTH",
"81 20 OFFCURVE",
"50 46 OFFCURVE",
"43 82 CURVE",
"53 78 OFFCURVE",
"63 75 OFFCURVE",
"75 75 CURVE SMOOTH",
"118 75 OFFCURVE",
"153 112 OFFCURVE",
"153 157 CURVE SMOOTH",
"153 269 LINE SMOOTH",
"153 288 OFFCURVE",
"145 327 OFFCURVE",
"108 356 CURVE",
"145 384 OFFCURVE",
"153 423 OFFCURVE",
"153 442 CURVE SMOOTH",
"153 553 LINE SMOOTH",
"153 599 OFFCURVE",
"118 636 OFFCURVE",
"75 636 CURVE SMOOTH",
"63 636 OFFCURVE",
"53 633 OFFCURVE",
"43 629 CURVE",
"50 665 OFFCURVE",
"81 691 OFFCURVE",
"118 691 CURVE SMOOTH",
"148 691 OFFCURVE",
"177 675 OFFCURVE",
"188 648 CURVE",
"245 704 OFFCURVE",
"337 706 OFFCURVE",
"393 650 CURVE SMOOTH",
"421 623 OFFCURVE",
"429 601 OFFCURVE",
"436 578 CURVE SMOOTH",
"445 553 OFFCURVE",
"454 529 OFFCURVE",
"485 502 CURVE",
"471 486 OFFCURVE",
"466 468 OFFCURVE",
"458 447 CURVE SMOOTH",
"456 442 OFFCURVE",
"455 438 OFFCURVE",
"454 431 CURVE SMOOTH",
"451 416 OFFCURVE",
"435 377 OFFCURVE",
"402 356 CURVE",
"435 333 OFFCURVE",
"451 295 OFFCURVE",
"454 280 CURVE SMOOTH",
"455 273 OFFCURVE",
"456 269 OFFCURVE",
"458 264 CURVE SMOOTH",
"466 243 OFFCURVE",
"471 225 OFFCURVE",
"485 208 CURVE",
"454 182 OFFCURVE",
"445 158 OFFCURVE",
"436 133 CURVE SMOOTH"
);
},
{
closed = 1;
nodes = (
"258 623 OFFCURVE",
"228 605 OFFCURVE",
"213 581 CURVE",
"213 425 LINE",
"228 400 OFFCURVE",
"258 384 OFFCURVE",
"291 384 CURVE SMOOTH",
"340 384 OFFCURVE",
"380 418 OFFCURVE",
"380 462 CURVE SMOOTH",
"380 476 OFFCURVE",
"374 490 OFFCURVE",
"366 503 CURVE",
"374 515 OFFCURVE",
"380 530 OFFCURVE",
"380 545 CURVE SMOOTH",
"380 587 OFFCURVE",
"340 623 OFFCURVE",
"291 623 CURVE SMOOTH"
);
},
{
closed = 1;
nodes = (
"358 430 OFFCURVE",
"328 406 OFFCURVE",
"291 406 CURVE SMOOTH",
"268 406 OFFCURVE",
"247 416 OFFCURVE",
"235 431 CURVE",
"235 575 LINE",
"247 591 OFFCURVE",
"268 601 OFFCURVE",
"291 601 CURVE SMOOTH",
"328 601 OFFCURVE",
"358 576 OFFCURVE",
"358 545 CURVE SMOOTH",
"358 529 OFFCURVE",
"349 514 OFFCURVE",
"335 503 CURVE",
"349 492 OFFCURVE",
"358 478 OFFCURVE",
"358 462 CURVE SMOOTH"
);
},
{
closed = 1;
nodes = (
"258 327 OFFCURVE",
"228 310 OFFCURVE",
"213 286 CURVE",
"213 130 LINE",
"228 106 OFFCURVE",
"258 88 OFFCURVE",
"291 88 CURVE SMOOTH",
"340 88 OFFCURVE",
"380 124 OFFCURVE",
"380 166 CURVE SMOOTH",
"380 181 OFFCURVE",
"374 195 OFFCURVE",
"366 208 CURVE",
"374 221 OFFCURVE",
"380 234 OFFCURVE",
"380 249 CURVE SMOOTH",
"380 292 OFFCURVE",
"340 327 OFFCURVE",
"291 327 CURVE SMOOTH"
);
},
{
closed = 1;
nodes = (
"358 135 OFFCURVE",
"328 110 OFFCURVE",
"291 110 CURVE SMOOTH",
"268 110 OFFCURVE",
"247 120 OFFCURVE",
"235 136 CURVE",
"235 280 LINE",
"247 295 OFFCURVE",
"268 305 OFFCURVE",
"291 305 CURVE SMOOTH",
"328 305 OFFCURVE",
"358 281 OFFCURVE",
"358 249 CURVE SMOOTH",
"358 233 OFFCURVE",
"349 219 OFFCURVE",
"335 208 CURVE",
"349 197 OFFCURVE",
"358 182 OFFCURVE",
"358 166 CURVE SMOOTH"
);
}
);
width = 540;
}
);
unicode = 0041;
},
{
glyphname = B;
lastChange = "2013-09-08 12:13:34 -0500";
layers = (
{
layerId = "D4A81252-B0CF-4F3E-9514-5651FCA26467";
name = Regular;
paths = (
{
closed = 1;
nodes = (
"577 142 OFFCURVE",
"549 264 OFFCURVE",
"554 331 CURVE SMOOTH",
"554 340 OFFCURVE",
"548 459 OFFCURVE",
"641 498 CURVE",
"616 523 OFFCURVE",
"582 546 OFFCURVE",
"555 553 CURVE",
"498 514 OFFCURVE",
"454 385 OFFCURVE",
"497 214 CURVE",
"457 261 OFFCURVE",
"407 292 OFFCURVE",
"379 316 CURVE",
"407 371 OFFCURVE",
"456 496 OFFCURVE",
"474 529 CURVE SMOOTH",
"493 560 OFFCURVE",
"508 577 OFFCURVE",
"540 583 CURVE",
"525 614 OFFCURVE",
"460 674 OFFCURVE",
"430 690 CURVE",
"436 659 OFFCURVE",
"436 617 OFFCURVE",
"422 569 CURVE SMOOTH",
"408 522 OFFCURVE",
"356 413 OFFCURVE",
"341 387 CURVE",
"313 437 OFFCURVE",
"289 505 OFFCURVE",
"272 560 CURVE SMOOTH",
"258 615 OFFCURVE",
"259 648 OFFCURVE",
"274 700 CURVE",
"240 688 OFFCURVE",
"174 640 OFFCURVE",
"155 594 CURVE",
"185 578 OFFCURVE",
"233 533 OFFCURVE",
"270 396 CURVE",
"221 426 OFFCURVE",
"154 497 OFFCURVE",
"124 585 CURVE",
"94 571 OFFCURVE",
"58 537 OFFCURVE",
"33 500 CURVE",
"163 373 OFFCURVE",
"103 233 OFFCURVE",
"20 90 CURVE",
"49 53 OFFCURVE",
"109 13 OFFCURVE",
"124 5 CURVE",
"121 44 OFFCURVE",
"127 83 OFFCURVE",
"130 103 CURVE SMOOTH",
"137 160 OFFCURVE",
"197 316 OFFCURVE",
"149 442 CURVE",
"201 386 OFFCURVE",
"242 350 OFFCURVE",
"287 317 CURVE",
"292 300 LINE",
"294 232 OFFCURVE",
"294 190 OFFCURVE",
"291 135 CURVE SMOOTH",
"287 58 OFFCURVE",
"245 34 OFFCURVE",
"240 31 CURVE",
"275 20 OFFCURVE",
"376 19 OFFCURVE",
"411 27 CURVE",
"384 49 OFFCURVE",
"368 69 OFFCURVE",
"366 104 CURVE SMOOTH",
"363 143 OFFCURVE",
"364 200 OFFCURVE",
"367 264 CURVE",
"462 198 OFFCURVE",
"519 120 OFFCURVE",
"528 0 CURVE",
"579 34 OFFCURVE",
"637 92 OFFCURVE",
"646 104 CURVE",
"640 106 OFFCURVE",
"640 107 OFFCURVE",
"628 113 CURVE SMOOTH"
);
}
);
width = 666;
}
);
unicode = 0042;
},
{
glyphname = C;
lastChange = "2013-09-08 12:13:34 -0500";
layers = (
{
layerId = "D4A81252-B0CF-4F3E-9514-5651FCA26467";
name = Regular;
paths = (
{
closed = 1;
nodes = (
"357 0 LINE",
"603 0 LINE SMOOTH",
"710 0 OFFCURVE",
"773 47 OFFCURVE",
"773 145 CURVE SMOOTH",
"773 274 OFFCURVE",
"629 270 OFFCURVE",
"629 270 CURVE",
"629 271 LINE",
"629 271 OFFCURVE",
"741 300 OFFCURVE",
"741 400 CURVE SMOOTH",
"741 481 OFFCURVE",
"684 514 OFFCURVE",
"573 514 CURVE SMOOTH",
"572 514 LINE",
"357 514 LINE",
"345 514 LINE",
"345 490 LINE",
"350 490 OFFCURVE",
"426 477 OFFCURVE",
"426 477 CURVE",
"426 38 LINE",
"424 37 OFFCURVE",
"350 24 OFFCURVE",
"345 24 CURVE",
"345 0 LINE"
);
},
{
closed = 1;
nodes = (
"653 373 LINE SMOOTH",
"649 279 OFFCURVE",
"547 269 OFFCURVE",
"547 269 CURVE",
"547 253 LINE",
"558 252 OFFCURVE",
"685 240 OFFCURVE",
"685 142 CURVE SMOOTH",
"685 136 LINE SMOOTH",
"683 83 OFFCURVE",
"648 30 OFFCURVE",
"565 30 CURVE SMOOTH",
"563 30 LINE",
"515 30 LINE",
"514 486 LINE",
"517 486 LINE SMOOTH",
"524 487 OFFCURVE",
"536 487 OFFCURVE",
"542 487 CURVE",
"542 487 OFFCURVE",
"653 493 OFFCURVE",
"653 378 CURVE SMOOTH"
);
},
{
closed = 1;
nodes = (
"137 191 LINE",
"382 191 LINE",
"382 215 LINE",
"304 229 LINE",
"304 655 LINE",
"423 655 LINE",
"465 638 OFFCURVE",
"481 564 OFFCURVE",
"484 551 CURVE",
"497 552 LINE",
"502 552 LINE",
"485 698 LINE",
"35 698 LINE",
"20 568 LINE",
"38 567 LINE",
"41 581 OFFCURVE",
"55 638 OFFCURVE",
"97 655 CURVE SMOOTH",
"215 655 LINE",
"215 229 LINE",
"137 215 LINE"
);
}
);
width = 793;
}
);
unicode = 0043;
},
{
glyphname = D;
lastChange = "2013-09-08 12:14:05 -0500";
layers = (
{
layerId = "D4A81252-B0CF-4F3E-9514-5651FCA26467";
name = Regular;
paths = (
{
closed = 1;
nodes = (
"220 390 OFFCURVE",
"282 367 OFFCURVE",
"368 377 CURVE",
"364 324 OFFCURVE",
"346 256 OFFCURVE",
"324 204 CURVE SMOOTH",
"307 164 OFFCURVE",
"281 111 OFFCURVE",
"245 86 CURVE SMOOTH",
"221 72 OFFCURVE",
"207 68 OFFCURVE",
"184 74 CURVE SMOOTH",
"108 89 OFFCURVE",
"97 216 OFFCURVE",
"107 299 CURVE SMOOTH",
"113 356 OFFCURVE",
"139 415 OFFCURVE",
"174 458 CURVE"
);
},
{
closed = 1;
nodes = (
"327 409 OFFCURVE",
"297 422 OFFCURVE",
"273 447 CURVE SMOOTH",
"243 475 OFFCURVE",
"225 516 OFFCURVE",
"225 555 CURVE SMOOTH",
"225 592 OFFCURVE",
"240 625 OFFCURVE",
"263 641 CURVE SMOOTH",
"284 653 OFFCURVE",
"305 655 OFFCURVE",
"326 647 CURVE SMOOTH",
"379 625 OFFCURVE",
"384 506 OFFCURVE",
"372 412 CURVE"
);
},
{
closed = 1;
nodes = (
"489 440 OFFCURVE",
"470 429 OFFCURVE",
"453 422 CURVE",
"460 584 OFFCURVE",
"422 682 OFFCURVE",
"347 709 CURVE SMOOTH",
"302 726 OFFCURVE",
"257 722 OFFCURVE",
"220 700 CURVE SMOOTH",
"180 674 OFFCURVE",
"152 630 OFFCURVE",
"149 578 CURVE",
"72 503 OFFCURVE",
"29 391 OFFCURVE",
"22 296 CURVE SMOOTH",
"13 198 OFFCURVE",
"31 115 OFFCURVE",
"73 59 CURVE SMOOTH",
"99 26 OFFCURVE",
"141 6 OFFCURVE",
"177 3 CURVE SMOOTH",
"223 0 OFFCURVE",
"265 16 OFFCURVE",
"306 52 CURVE SMOOTH",
"392 128 OFFCURVE",
"446 277 OFFCURVE",
"452 385 CURVE",
"475 392 OFFCURVE",
"506 412 OFFCURVE",
"527 432 CURVE",
"504 454 LINE"
);
},
{
closed = 1;
nodes = (
"559 359 OFFCURVE",
"560 361 OFFCURVE",
"571 374 CURVE",
"570 375 OFFCURVE",
"568 375 OFFCURVE",
"566 375 CURVE SMOOTH",
"561 375 OFFCURVE",
"555 372 OFFCURVE",
"543 363 CURVE SMOOTH",
"529 349 OFFCURVE",
"515 322 OFFCURVE",
"515 309 CURVE SMOOTH",
"515 304 OFFCURVE",
"522 303 OFFCURVE",
"535 303 CURVE SMOOTH",
"539 303 OFFCURVE",
"542 303 OFFCURVE",
"548 307 CURVE",
"559 313 OFFCURVE",
"568 328 OFFCURVE",
"568 337 CURVE SMOOTH",
"568 343 OFFCURVE",
"564 346 OFFCURVE",
"554 350 CURVE"
);
},
{
closed = 1;
nodes = (
"634 256 LINE",
"626 269 LINE",
"623 276 OFFCURVE",
"622 286 OFFCURVE",
"624 296 CURVE SMOOTH",
"625 300 LINE",
"577 288 LINE",
"568 277 OFFCURVE",
"555 252 OFFCURVE",
"545 233 CURVE SMOOTH",
"513 170 LINE SMOOTH",
"490 129 OFFCURVE",
"470 100 OFFCURVE",
"444 96 CURVE SMOOTH",
"443 96 LINE",
"422 62 LINE",
"426 62 LINE SMOOTH",
"456 62 OFFCURVE",
"486 82 OFFCURVE",
"514 123 CURVE SMOOTH",
"535 156 LINE",
"551 189 LINE",
"556 199 LINE",
"574 233 LINE",
"578 242 OFFCURVE",
"583 250 OFFCURVE",
"588 256 CURVE",
"588 256 OFFCURVE",
"589 258 OFFCURVE",
"591 260 CURVE",
"591 254 LINE",
"595 236 OFFCURVE",
"610 207 OFFCURVE",
"618 194 CURVE",
"620 190 LINE",
"616 190 LINE",
"569 192 OFFCURVE",
"548 164 OFFCURVE",
"546 147 CURVE SMOOTH",
"545 136 OFFCURVE",
"552 127 OFFCURVE",
"557 121 CURVE SMOOTH",
"566 112 OFFCURVE",
"579 106 OFFCURVE",
"594 107 CURVE SMOOTH",
"626 112 OFFCURVE",
"653 133 OFFCURVE",
"660 164 CURVE SMOOTH",
"661 169 LINE",
"662 184 LINE SMOOTH",
"663 191 OFFCURVE",
"660 201 OFFCURVE",
"653 218 CURVE"
);
},
{
closed = 1;
nodes = (
"606 128 OFFCURVE",
"599 126 OFFCURVE",
"588 126 CURVE SMOOTH",
"578 127 OFFCURVE",
"571 130 OFFCURVE",
"568 139 CURVE SMOOTH",
"565 147 OFFCURVE",
"568 157 OFFCURVE",
"575 164 CURVE SMOOTH",
"584 172 OFFCURVE",
"600 175 OFFCURVE",
"621 173 CURVE",
"623 170 LINE",
"623 164 LINE SMOOTH",
"623 149 OFFCURVE",
"617 140 OFFCURVE",
"612 134 CURVE SMOOTH"
);
}
);
width = 682.188;
}
);
unicode = 0044;
},
{
glyphname = E;
lastChange = "2013-09-08 12:13:34 -0500";
layers = (
{
layerId = "D4A81252-B0CF-4F3E-9514-5651FCA26467";
name = Regular;
paths = (
{
closed = 1;
nodes = (
"232 492 OFFCURVE",
"248 470 OFFCURVE",
"267 470 CURVE",
"267 470 OFFCURVE",
"262 483 OFFCURVE",
"268 496 CURVE SMOOTH",
"271 502 OFFCURVE",
"275 506 OFFCURVE",
"282 510 CURVE",
"329 542 OFFCURVE",
"432 510 OFFCURVE",
"432 510 CURVE",
"407 512 OFFCURVE",
"387 511 OFFCURVE",
"371 509 CURVE",
"399 500 OFFCURVE",
"430 488 OFFCURVE",
"449 483 CURVE SMOOTH",
"475 477 OFFCURVE",
"492 474 OFFCURVE",
"516 472 CURVE",
"515 482 LINE",
"530 480 LINE",
"567 473 LINE",
"573 487 LINE",
"578 503 LINE",
"590 491 LINE",
"618 464 LINE",
"617 481 OFFCURVE",
"612 526 OFFCURVE",
"612 526 CURVE SMOOTH",
"611 544 LINE",
"645 530 LINE",
"673 575 LINE",
"682 591 LINE",
"692 575 LINE",
"713 539 LINE",
"721 571 OFFCURVE",
"727 603 OFFCURVE",
"743 619 CURVE",
"727 618 OFFCURVE",
"715 614 OFFCURVE",
"698 601 CURVE",
"707 629 OFFCURVE",
"722 649 OFFCURVE",
"743 672 CURVE",
"723 669 OFFCURVE",
"705 663 OFFCURVE",
"687 653 CURVE",
"694 669 OFFCURVE",
"694 690 OFFCURVE",
"694 690 CURVE",
"608 591 OFFCURVE",
"370 592 OFFCURVE",
"309 572 CURVE SMOOTH",
"268 558 OFFCURVE",
"248 536 OFFCURVE",
"233 515 CURVE"
);
},
{
closed = 1;
nodes = (
"596 298 LINE",
"571 296 LINE",
"587 317 LINE",
"596 328 LINE",
"562 357 LINE",
"542 329 OFFCURVE",
"524 297 OFFCURVE",
"515 272 CURVE",
"554 272 LINE",
"534 248 OFFCURVE",
"496 207 OFFCURVE",
"470 163 CURVE",
"445 226 OFFCURVE",
"384 307 OFFCURVE",
"276 351 CURVE SMOOTH",
"245 364 OFFCURVE",
"215 381 OFFCURVE",
"219 406 CURVE",
"165 414 OFFCURVE",
"105 420 OFFCURVE",
"38 422 CURVE SMOOTH",
"24 422 LINE SMOOTH",
"20 422 OFFCURVE",
"19 421 OFFCURVE",
"23 417 CURVE",
"42 404 OFFCURVE",
"105 380 OFFCURVE",
"182 366 CURVE SMOOTH",
"218 359 OFFCURVE",
"235 348 OFFCURVE",
"261 330 CURVE SMOOTH",
"319 290 OFFCURVE",
"398 176 OFFCURVE",
"445 35 CURVE",
"537 211 OFFCURVE",
"642 296 OFFCURVE",
"650 303 CURVE"
);
},
{
closed = 1;
nodes = (
"232 427 LINE",
"237 433 OFFCURVE",
"246 439 OFFCURVE",
"262 439 CURVE SMOOTH",
"267 439 LINE SMOOTH",
"298 438 OFFCURVE",
"304 406 OFFCURVE",
"336 406 CURVE SMOOTH",
"368 406 OFFCURVE",
"374 438 OFFCURVE",
"404 439 CURVE SMOOTH",
"519 439 LINE",
"518 458 LINE",
"405 458 LINE SMOOTH",
"375 458 OFFCURVE",
"369 489 OFFCURVE",
"336 489 CURVE SMOOTH",
"304 489 OFFCURVE",
"298 458 OFFCURVE",
"267 458 CURVE SMOOTH",
"235 460 OFFCURVE",
"222 487 OFFCURVE",
"220 510 CURVE",
"205 504 OFFCURVE",
"198 497 OFFCURVE",
"187 480 CURVE",
"71 461 OFFCURVE",
"32 442 OFFCURVE",
"21 430 CURVE",
"19 428 OFFCURVE",
"20 427 OFFCURVE",
"21 427 CURVE",
"60 429 OFFCURVE",
"115 430 OFFCURVE",
"209 427 CURVE SMOOTH"
);
},
{
closed = 1;
nodes = (
"321 465 OFFCURVE",
"322 458 OFFCURVE",
"323 454 CURVE",
"312 454 LINE",
"312 461 OFFCURVE",
"316 470 OFFCURVE",
"323 475 CURVE"
);
},
{
closed = 1;
nodes = (
"837 469 LINE",
"790 461 LINE",
"782 483 LINE",
"749 452 LINE SMOOTH",
"746 449 OFFCURVE",
"743 447 OFFCURVE",
"741 447 CURVE SMOOTH",
"740 447 OFFCURVE",
"740 447 OFFCURVE",
"739 448 CURVE SMOOTH",
"736 448 OFFCURVE",
"734 452 OFFCURVE",
"735 459 CURVE SMOOTH",
"735 467 LINE",
"741 527 LINE",
"714 517 LINE",
"682 570 LINE",
"661 534 LINE",
"650 517 LINE",
"623 527 LINE",
"630 459 LINE",
"630 455 LINE SMOOTH",
"630 453 OFFCURVE",
"630 451 OFFCURVE",
"629 450 CURVE",
"628 448 OFFCURVE",
"626 447 OFFCURVE",
"624 447 CURVE SMOOTH",
"624 447 OFFCURVE",
"623 447 OFFCURVE",
"623 448 CURVE SMOOTH",
"622 448 OFFCURVE",
"621 448 OFFCURVE",
"620 449 CURVE SMOOTH",
"619 449 OFFCURVE",
"617 450 OFFCURVE",
"616 451 CURVE SMOOTH",
"582 483 LINE",
"574 461 LINE",
"528 469 LINE",
"532 419 LINE",
"522 415 LINE",
"514 412 LINE",
"612 329 LINE",
"596 309 LINE",
"601 310 LINE",
"675 316 LINE",
"682 302 LINE",
"685 307 LINE",
"690 316 LINE",
"719 314 LINE",
"769 309 LINE",
"753 329 LINE",
"850 412 LINE",
"841 415 LINE",
"833 419 LINE"
);
}
);
width = 870;
}
);
unicode = 0045;
},
{
glyphname = F;
lastChange = "2013-09-08 12:13:34 -0500";
layers = (
{
layerId = "D4A81252-B0CF-4F3E-9514-5651FCA26467";
name = Regular;
paths = (
{
closed = 1;
nodes = (
"419 686 LINE SMOOTH",
"497 686 OFFCURVE",
"551 632 OFFCURVE",
"551 559 CURVE SMOOTH",
"551 490 OFFCURVE",
"531 215 OFFCURVE",
"557 100 CURVE",
"484 105 OFFCURVE",
"411 72 OFFCURVE",
"361 8 CURVE",
"310 37 OFFCURVE",
"277 41 OFFCURVE",
"219 41 CURVE SMOOTH",
"172 41 OFFCURVE",
"107 26 OFFCURVE",
"54 6 CURVE SMOOTH",
"35 -2 OFFCURVE",
"42 8 OFFCURVE",
"53 25 CURVE SMOOTH",
"83 67 OFFCURVE",
"143 120 OFFCURVE",
"205 144 CURVE",
"205 572 LINE",
"183 550 OFFCURVE",
"172 525 OFFCURVE",
"172 478 CURVE SMOOTH",
"172 224 LINE SMOOTH",
"172 180 OFFCURVE",
"156 148 OFFCURVE",
"131 126 CURVE SMOOTH",
"107 105 OFFCURVE",
"74 99 OFFCURVE",
"58 95 CURVE SMOOTH",
"42 92 OFFCURVE",
"35 95 OFFCURVE",
"49 112 CURVE SMOOTH",
"61 128 OFFCURVE",
"74 142 OFFCURVE",
"74 202 CURVE SMOOTH",
"74 322 LINE",
"61 318 OFFCURVE",
"46 303 OFFCURVE",
"36 291 CURVE SMOOTH",
"28 278 OFFCURVE",
"20 281 OFFCURVE",
"20 296 CURVE SMOOTH",
"20 336 OFFCURVE",
"45 374 OFFCURVE",
"74 389 CURVE",
"74 418 LINE",
"61 414 OFFCURVE",
"47 400 OFFCURVE",
"36 387 CURVE SMOOTH",
"28 375 OFFCURVE",
"20 377 OFFCURVE",
"20 392 CURVE SMOOTH",
"20 432 OFFCURVE",
"45 470 OFFCURVE",
"74 485 CURVE",
"74 546 OFFCURVE",
"100 568 OFFCURVE",
"139 590 CURVE",
"82 599 OFFCURVE",
"30 666 OFFCURVE",
"25 698 CURVE",
"43 688 OFFCURVE",
"76 686 OFFCURVE",
"101 686 CURVE SMOOTH"
);
},
{
closed = 1;
nodes = (
"262 147 LINE",
"294 143 LINE",
"294 586 LINE",
"279 584 OFFCURVE",
"262 574 OFFCURVE",
"262 551 CURVE SMOOTH"
);
},
{
closed = 1;
nodes = (
"391 106 LINE",
"408 117 OFFCURVE",
"433 128 OFFCURVE",
"449 133 CURVE",
"449 262 LINE",
"419 243 OFFCURVE",
"386 243 OFFCURVE",
"353 260 CURVE",
"353 124 LINE"
);
},
{
closed = 1;
nodes = (
"386 294 OFFCURVE",
"419 294 OFFCURVE",
"449 313 CURVE",
"449 422 LINE",
"419 441 OFFCURVE",
"386 441 OFFCURVE",
"353 426 CURVE",
"353 310 LINE"
);
},
{
closed = 1;
nodes = (
"422 590 OFFCURVE",
"382 591 OFFCURVE",
"353 577 CURVE",
"353 474 LINE",
"386 491 OFFCURVE",
"419 491 OFFCURVE",
"449 472 CURVE",
"449 573 LINE"
);
}
);
width = 577;
}
);
unicode = 0046;
},
{
glyphname = G;
lastChange = "2013-09-08 12:13:34 -0500";
layers = (
{
layerId = "D4A81252-B0CF-4F3E-9514-5651FCA26467";
name = Regular;
paths = (
{
closed = 1;
nodes = (
"513 700 LINE",
"396 700 LINE",
"396 673 LINE",
"370 700 LINE",
"137 700 LINE",
"20 583 LINE",
"20 117 LINE",
"137 0 LINE",
"396 0 LINE",
"513 117 LINE",
"513 247 LINE",
"396 247 LINE",
"396 165 LINE",
"348 117 LINE",
"185 117 LINE",
"137 165 LINE",
"137 535 LINE",
"185 583 LINE",
"348 583 LINE",
"396 535 LINE",
"396 453 LINE",
"513 453 LINE"
);
}
);
width = 533;
}
);
unicode = 0047;
},
{
glyphname = H;
lastChange = "2013-09-08 12:13:34 -0500";
layers = (
{
layerId = "D4A81252-B0CF-4F3E-9514-5651FCA26467";
name = Regular;
paths = (
{
closed = 1;
nodes = (
"735 196 OFFCURVE",
"680 135 OFFCURVE",
"728 112 CURVE SMOOTH",
"729 111 LINE SMOOTH",
"732 110 OFFCURVE",
"734 107 OFFCURVE",
"734 103 CURVE SMOOTH",
"734 100 OFFCURVE",
"734 96 OFFCURVE",
"731 90 CURVE SMOOTH",
"707 28 OFFCURVE",
"618 1 OFFCURVE",
"552 57 CURVE SMOOTH",
"508 94 OFFCURVE",
"474 168 OFFCURVE",
"476 294 CURVE SMOOTH",
"478 379 OFFCURVE",
"498 504 OFFCURVE",
"606 501 CURVE SMOOTH",
"648 500 OFFCURVE",
"676 482 OFFCURVE",
"695 458 CURVE SMOOTH",
"723 423 OFFCURVE",
"730 375 OFFCURVE",
"731 355 CURVE",
"757 355 LINE",
"757 546 LINE",
"727 546 LINE",
"722 524 OFFCURVE",
"718 504 OFFCURVE",
"678 515 CURVE SMOOTH",
"638 526 OFFCURVE",
"620 525 OFFCURVE",
"606 525 CURVE SMOOTH",
"482 531 OFFCURVE",
"397 391 OFFCURVE",
"410 276 CURVE SMOOTH",
"411 274 OFFCURVE",
"411 272 OFFCURVE",
"411 269 CURVE",
"392 283 OFFCURVE",
"366 354 OFFCURVE",
"320 406 CURVE SMOOTH",
"299 430 OFFCURVE",
"274 449 OFFCURVE",
"244 458 CURVE SMOOTH",
"235 461 OFFCURVE",
"226 463 OFFCURVE",
"217 463 CURVE SMOOTH",
"217 463 OFFCURVE",
"295 580 OFFCURVE",
"334 628 CURVE SMOOTH",
"364 666 OFFCURVE",
"387 666 OFFCURVE",
"406 666 CURVE SMOOTH",
"418 666 LINE",
"418 692 LINE",
"248 692 LINE",
"248 666 LINE",
"266 666 LINE SMOOTH",
"280 665 OFFCURVE",
"291 660 OFFCURVE",
"290 647 CURVE SMOOTH",
"290 642 OFFCURVE",
"288 637 OFFCURVE",
"285 630 CURVE SMOOTH",
"270 601 OFFCURVE",
"204 507 OFFCURVE",
"174 464 CURVE SMOOTH",
"172 462 OFFCURVE",
"171 460 OFFCURVE",
"170 458 CURVE",
"156 450 LINE",
"156 602 LINE SMOOTH",
"156 647 OFFCURVE",
"184 664 OFFCURVE",
"212 666 CURVE",
"212 692 LINE",
"20 692 LINE",
"20 666 LINE",
"30 666 LINE SMOOTH",
"32 666 OFFCURVE",
"35 666 OFFCURVE",
"38 665 CURVE SMOOTH",
"55 664 OFFCURVE",
"72 656 OFFCURVE",
"83 639 CURVE SMOOTH",
"88 630 OFFCURVE",
"92 618 OFFCURVE",
"92 602 CURVE SMOOTH",
"92 263 LINE SMOOTH",
"92 214 OFFCURVE",
"59 198 OFFCURVE",
"30 199 CURVE",
"20 198 LINE",
"20 173 LINE",
"228 173 LINE",
"228 198 LINE",
"218 199 LINE",
"206 198 OFFCURVE",
"194 201 OFFCURVE",
"184 207 CURVE SMOOTH",
"168 217 OFFCURVE",
"156 234 OFFCURVE",
"156 263 CURVE SMOOTH",
"156 401 LINE",
"174 418 OFFCURVE",
"221 450 OFFCURVE",
"278 384 CURVE SMOOTH",
"283 379 LINE SMOOTH",
"337 312 OFFCURVE",
"383 147 OFFCURVE",
"480 58 CURVE SMOOTH",
"519 23 OFFCURVE",
"565 0 OFFCURVE",
"623 0 CURVE SMOOTH",
"755 0 OFFCURVE",
"781 118 OFFCURVE",
"766 143 CURVE SMOOTH"
);
}
);
width = 789.786;
}
);
unicode = 0048;
},
{
glyphname = I;
lastChange = "2013-09-08 12:13:34 -0500";
layers = (
{
layerId = "D4A81252-B0CF-4F3E-9514-5651FCA26467";
name = Regular;
paths = (
{
closed = 1;
nodes = (
"431 472 LINE",
"529 466 OFFCURVE",
"608 418 OFFCURVE",
"623 356 CURVE",
"720 358 LINE",
"705 471 OFFCURVE",
"583 559 OFFCURVE",
"431 567 CURVE",
"432 622 LINE",
"494 620 OFFCURVE",
"558 613 OFFCURVE",
"617 595 CURVE",
"621 571 OFFCURVE",
"657 522 OFFCURVE",
"696 517 CURVE",
"696 517 OFFCURVE",
"681 608 OFFCURVE",
"685 655 CURVE",
"602 678 OFFCURVE",
"329 708 OFFCURVE",
"101 658 CURVE",
"101 658 OFFCURVE",
"100 541 OFFCURVE",
"85 518 CURVE",
"85 518 OFFCURVE",
"160 537 OFFCURVE",
"177 604 CURVE",
"177 604 OFFCURVE",
"257 619 OFFCURVE",
"360 622 CURVE",
"359 560 LINE",
"279 549 OFFCURVE",
"205 509 OFFCURVE",
"155 457 CURVE",
"114 407 OFFCURVE",
"47 342 OFFCURVE",
"20 331 CURVE",
"20 331 OFFCURVE",
"124 247 OFFCURVE",
"143 212 CURVE",
"187 158 OFFCURVE",
"260 114 OFFCURVE",
"355 102 CURVE",
"355 71 LINE",
"312 0 LINE",
"483 3 LINE",
"430 69 LINE",
"430 101 LINE",
"572 110 OFFCURVE",
"688 189 OFFCURVE",
"715 290 CURVE",
"613 288 LINE",
"585 239 OFFCURVE",
"515 202 OFFCURVE",
"430 195 CURVE"
);
},
{
closed = 1;
nodes = (
"262 211 OFFCURVE",
"191 264 OFFCURVE",
"189 329 CURVE SMOOTH",
"188 396 OFFCURVE",
"261 452 OFFCURVE",
"358 468 CURVE",
"356 198 LINE"
);
}
);
width = 740;
}
);
unicode = 0049;
},
{
glyphname = J;
lastChange = "2013-09-08 12:13:34 -0500";
layers = (
{
layerId = "D4A81252-B0CF-4F3E-9514-5651FCA26467";
name = Regular;
paths = (
{
closed = 1;
nodes = (
"540 239 LINE",
"507 269 LINE",
"414 155 LINE",
"401 175 LINE",
"413 184 OFFCURVE",
"427 195 OFFCURVE",
"429 196 CURVE SMOOTH",
"431 197 OFFCURVE",
"438 201 OFFCURVE",
"442 201 CURVE SMOOTH",
"444 201 OFFCURVE",
"436 214 OFFCURVE",
"415 214 CURVE",
"415 333 LINE",
"428 346 LINE",
"428 346 OFFCURVE",
"412 344 OFFCURVE",
"404 346 CURVE SMOOTH",
"403 346 OFFCURVE",
"400 349 OFFCURVE",
"397 350 CURVE",
"401 356 OFFCURVE",
"405 364 OFFCURVE",
"407 373 CURVE SMOOTH",
"423 420 OFFCURVE",
"413 465 OFFCURVE",
"377 492 CURVE SMOOTH",
"352 511 OFFCURVE",
"248 564 OFFCURVE",
"248 564 CURVE SMOOTH",
"248 564 OFFCURVE",
"185 595 OFFCURVE",
"178 601 CURVE SMOOTH",
"173 606 OFFCURVE",
"163 614 OFFCURVE",
"163 638 CURVE SMOOTH",
"163 651 OFFCURVE",
"179 667 OFFCURVE",
"186 671 CURVE SMOOTH",
"197 676 OFFCURVE",
"201 678 OFFCURVE",
"222 678 CURVE SMOOTH",
"235 679 OFFCURVE",
"247 676 OFFCURVE",
"248 676 CURVE SMOOTH",
"262 674 OFFCURVE",
"294 663 OFFCURVE",
"311 641 CURVE",
"317 634 OFFCURVE",
"319 616 OFFCURVE",
"319 616 CURVE",
"345 599 LINE",
"402 673 LINE",
"371 694 LINE",
"362 685 OFFCURVE",
"345 684 OFFCURVE",
"339 688 CURVE SMOOTH",
"332 691 OFFCURVE",
"275 711 OFFCURVE",
"266 715 CURVE SMOOTH",
"251 719 OFFCURVE",
"218 723 OFFCURVE",
"200 720 CURVE SMOOTH",
"182 718 OFFCURVE",
"152 712 OFFCURVE",
"129 688 CURVE SMOOTH",
"101 659 OFFCURVE",
"101 635 OFFCURVE",
"101 623 CURVE SMOOTH",
"101 603 OFFCURVE",
"107 578 OFFCURVE",
"128 556 CURVE SMOOTH",
"159 525 OFFCURVE",
"207 505 OFFCURVE",
"218 499 CURVE SMOOTH",
"237 489 OFFCURVE",
"297 458 OFFCURVE",
"306 452 CURVE SMOOTH",
"342 431 OFFCURVE",
"356 409 OFFCURVE",
"353 380 CURVE SMOOTH",
"352 379 OFFCURVE",
"352 376 OFFCURVE",
"352 375 CURVE",
"336 385 OFFCURVE",
"312 399 OFFCURVE",
"304 409 CURVE",
"304 409 OFFCURVE",
"298 402 OFFCURVE",
"294 399 CURVE SMOOTH",
"267 379 LINE",
"270 391 OFFCURVE",
"271 414 OFFCURVE",
"270 416 CURVE SMOOTH",
"270 419 OFFCURVE",
"268 441 OFFCURVE",
"249 453 CURVE SMOOTH",
"236 463 OFFCURVE",
"208 480 OFFCURVE",
"184 492 CURVE SMOOTH",
"173 497 OFFCURVE",
"139 518 OFFCURVE",
"123 532 CURVE",
"123 532 OFFCURVE",
"95 557 OFFCURVE",
"91 573 CURVE",
"82 592 OFFCURVE",
"82 635 OFFCURVE",
"86 640 CURVE",
"86 640 OFFCURVE",
"76 628 OFFCURVE",
"68 603 CURVE SMOOTH",
"64 592 OFFCURVE",
"62 577 OFFCURVE",
"62 566 CURVE SMOOTH",
"62 549 OFFCURVE",
"65 519 OFFCURVE",
"84 493 CURVE SMOOTH",
"93 481 OFFCURVE",
"106 468 OFFCURVE",
"120 459 CURVE SMOOTH",
"137 448 OFFCURVE",
"154 442 OFFCURVE",
"155 441 CURVE SMOOTH",
"159 437 OFFCURVE",
"204 418 OFFCURVE",
"207 416 CURVE SMOOTH",
"236 403 LINE SMOOTH",
"251 395 OFFCURVE",
"260 389 OFFCURVE",
"264 376 CURVE",
"218 342 LINE",
"218 342 OFFCURVE",
"220 338 OFFCURVE",
"220 333 CURVE SMOOTH",
"220 328 LINE",
"215 330 OFFCURVE",
"208 333 OFFCURVE",
"202 334 CURVE SMOOTH",
"172 338 OFFCURVE",
"154 338 OFFCURVE",
"129 333 CURVE SMOOTH",
"103 326 OFFCURVE",
"76 315 OFFCURVE",
"49 289 CURVE SMOOTH",
"20 260 OFFCURVE",
"20 239 OFFCURVE",
"20 239 CURVE",
"50 257 LINE SMOOTH",
"75 271 OFFCURVE",
"107 279 OFFCURVE",
"129 279 CURVE SMOOTH",
"184 279 OFFCURVE",
"213 263 OFFCURVE",
"220 254 CURVE",
"220 201 LINE SMOOTH",
"220 191 OFFCURVE",
"217 189 OFFCURVE",
"215 188 CURVE SMOOTH",
"210 185 LINE",
"215 182 LINE",
"322 118 LINE",
"362 146 LINE",
"382 115 LINE",
"327 46 LINE",
"289 81 LINE",
"289 16 LINE",
"332 -24 LINE",
"408 73 LINE",
"472 -28 LINE",
"523 13 LINE",
"523 77 LINE",
"482 46 LINE",
"440 112 LINE",
"515 206 LINE",
"540 186 LINE"
);
},
{
closed = 1;
nodes = (
"304 348 LINE",
"310 342 OFFCURVE",
"319 338 OFFCURVE",
"326 334 CURVE",
"325 333 LINE SMOOTH",
"325 333 OFFCURVE",
"297 309 OFFCURVE",
"280 307 CURVE",
"280 330 LINE"
);
},
{
closed = 1;
nodes = (
"280 203 LINE",
"280 266 LINE",
"298 269 OFFCURVE",
"340 290 OFFCURVE",
"362 312 CURVE",
"362 237 LINE",
"337 278 LINE",
"298 250 LINE",
"298 201 LINE",
"320 215 LINE",
"336 189 LINE",
"322 179 LINE"
);
}
);
width = 560;
}
);
unicode = 004A;
},
{
glyphname = K;
lastChange = "2013-09-08 12:13:34 -0500";
layers = (
{
layerId = "D4A81252-B0CF-4F3E-9514-5651FCA26467";
name = Regular;
paths = (
{
closed = 1;
nodes = (
"598 106 OFFCURVE",
"581 99 OFFCURVE",
"565 102 CURVE SMOOTH",
"552 105 OFFCURVE",
"535 114 OFFCURVE",
"526 146 CURVE",
"421 581 LINE SMOOTH",
"413 634 OFFCURVE",
"385 663 OFFCURVE",
"363 678 CURVE SMOOTH",
"334 697 OFFCURVE",
"299 704 OFFCURVE",
"268 697 CURVE SMOOTH",
"219 686 OFFCURVE",
"202 660 OFFCURVE",
"195 641 CURVE",
"215 651 OFFCURVE",
"236 646 OFFCURVE",
"250 638 CURVE SMOOTH",
"259 632 OFFCURVE",
"279 620 OFFCURVE",
"265 584 CURVE SMOOTH",
"247 535 LINE",
"237 538 LINE SMOOTH",
"226 541 OFFCURVE",
"214 542 OFFCURVE",
"202 540 CURVE SMOOTH",
"182 536 OFFCURVE",
"167 528 OFFCURVE",
"159 516 CURVE SMOOTH",
"154 508 OFFCURVE",
"153 500 OFFCURVE",
"153 493 CURVE",
"170 502 OFFCURVE",
"187 499 OFFCURVE",
"199 491 CURVE SMOOTH",
"208 486 OFFCURVE",
"216 478 OFFCURVE",
"216 463 CURVE SMOOTH",
"216 458 OFFCURVE",
"215 452 OFFCURVE",
"213 445 CURVE SMOOTH",
"102 72 LINE",
"96 71 LINE SMOOTH",
"39 52 OFFCURVE",
"24 20 OFFCURVE",
"20 0 CURVE",
"37 10 OFFCURVE",
"65 23 OFFCURVE",
"105 27 CURVE SMOOTH",
"121 28 OFFCURVE",
"140 23 OFFCURVE",
"159 18 CURVE SMOOTH",
"175 15 OFFCURVE",
"191 11 OFFCURVE",
"202 11 CURVE SMOOTH",
"217 11 OFFCURVE",
"228 15 OFFCURVE",
"235 23 CURVE SMOOTH",
"242 31 OFFCURVE",
"245 42 OFFCURVE",
"245 51 CURVE",
"216 67 LINE",
"214 63 OFFCURVE",
"211 60 OFFCURVE",
"207 58 CURVE SMOOTH",
"201 55 OFFCURVE",
"190 52 OFFCURVE",
"174 58 CURVE SMOOTH",
"164 62 LINE",
"208 215 LINE",
"379 215 LINE",
"408 101 LINE SMOOTH",
"428 22 OFFCURVE",
"485 3 OFFCURVE",
"529 11 CURVE SMOOTH",
"570 18 OFFCURVE",
"600 58 OFFCURVE",
"612 117 CURVE"
);
},
{
closed = 1;
nodes = (
"291 491 LINE",
"303 534 LINE",
"362 277 LINE",
"229 277 LINE"
);
},
{
closed = 1;
nodes = (
"644 446 LINE SMOOTH",
"634 449 OFFCURVE",
"615 455 OFFCURVE",
"615 473 CURVE SMOOTH",
"615 489 OFFCURVE",
"630 499 OFFCURVE",
"646 499 CURVE SMOOTH",
"656 499 OFFCURVE",
"667 495 OFFCURVE",
"677 489 CURVE",
"681 496 OFFCURVE",
"685 505 OFFCURVE",
"689 513 CURVE",
"674 520 OFFCURVE",
"655 525 OFFCURVE",
"638 525 CURVE SMOOTH",
"602 525 OFFCURVE",
"578 501 OFFCURVE",
"578 466 CURVE SMOOTH",
"578 435 OFFCURVE",
"591 427 OFFCURVE",
"627 417 CURVE SMOOTH",
"640 414 OFFCURVE",
"664 407 OFFCURVE",
"664 386 CURVE SMOOTH",
"664 369 OFFCURVE",
"650 357 OFFCURVE",
"630 357 CURVE SMOOTH",
"615 357 OFFCURVE",
"601 364 OFFCURVE",
"586 375 CURVE",
"582 366 OFFCURVE",
"577 356 OFFCURVE",
"573 348 CURVE",
"591 337 OFFCURVE",
"611 330 OFFCURVE",
"632 330 CURVE SMOOTH",
"652 330 OFFCURVE",
"670 336 OFFCURVE",
"683 347 CURVE SMOOTH",
"695 357 OFFCURVE",
"701 373 OFFCURVE",
"701 395 CURVE SMOOTH",
"701 419 OFFCURVE",
"688 433 OFFCURVE",
"657 442 CURVE SMOOTH"
);
},
{
closed = 1;
nodes = (
"513 516 OFFCURVE",
"521 517 OFFCURVE",
"526 510 CURVE SMOOTH",
"528 508 OFFCURVE",
"528 505 OFFCURVE",
"528 502 CURVE SMOOTH",
"528 498 OFFCURVE",
"527 494 OFFCURVE",
"525 490 CURVE SMOOTH",
"523 483 OFFCURVE",
"520 479 OFFCURVE",
"517 475 CURVE",
"526 481 LINE SMOOTH",
"534 488 OFFCURVE",
"542 501 OFFCURVE",
"542 515 CURVE SMOOTH",
"542 521 OFFCURVE",
"540 527 OFFCURVE",
"538 533 CURVE SMOOTH",
"534 542 OFFCURVE",
"526 544 OFFCURVE",
"522 545 CURVE SMOOTH",
"514 546 OFFCURVE",
"506 544 OFFCURVE",
"502 539 CURVE SMOOTH",
"497 533 OFFCURVE",
"497 525 OFFCURVE",
"499 520 CURVE SMOOTH",
"501 517 OFFCURVE",
"503 516 OFFCURVE",
"508 516 CURVE SMOOTH"
);
}
);
width = 721;
}
);
unicode = 004B;
},
{
glyphname = L;
lastChange = "2013-09-08 12:13:34 -0500";
layers = (
{
layerId = "D4A81252-B0CF-4F3E-9514-5651FCA26467";
name = Regular;
paths = (
{
closed = 1;
nodes = (
"456 43 LINE",
"168 43 LINE",
"213 0 LINE",
"491 0 LINE",
"491 117 LINE",
"456 150 LINE"
);
},
{
closed = 1;
nodes = (
"424 367 OFFCURVE",
"474 381 OFFCURVE",
"474 381 CURVE SMOOTH",
"474 381 OFFCURVE",
"460 386 OFFCURVE",
"447 396 CURVE",
"427 390 LINE SMOOTH",
"426 390 OFFCURVE",
"382 377 OFFCURVE",
"382 347 CURVE SMOOTH",
"382 171 LINE SMOOTH",
"382 159 OFFCURVE",
"387 151 OFFCURVE",
"411 151 CURVE SMOOTH",
"424 151 LINE",
"424 154 LINE",
"424 331 LINE SMOOTH"
);
},
{
closed = 1;
nodes = (
"563 429 LINE",
"634 429 LINE",
"634 663 LINE",
"595 700 LINE",
"595 470 LINE",
"520 470 LINE"
);
},
{
closed = 1;
nodes = (
"382 422 OFFCURVE",
"427 404 OFFCURVE",
"427 404 CURVE SMOOTH",
"446 397 LINE",
"434 406 OFFCURVE",
"424 418 OFFCURVE",
"424 433 CURVE SMOOTH",
"424 583 LINE",
"431 583 LINE SMOOTH",
"458 580 OFFCURVE",
"478 573 OFFCURVE",
"492 562 CURVE",
"469 585 OFFCURVE",
"433 598 OFFCURVE",
"382 598 CURVE",
"382 450 LINE SMOOTH"
);
},
{
closed = 1;
nodes = (
"148 598 OFFCURVE",
"111 566 OFFCURVE",
"111 488 CURVE SMOOTH",
"111 470 LINE",
"20 470 LINE",
"61 431 LINE",
"147 431 LINE",
"148 445 LINE SMOOTH",
"148 526 OFFCURVE",
"155 577 OFFCURVE",
"241 586 CURVE",
"241 598 LINE"
);
},
{
closed = 1;
nodes = (
"368 347 LINE SMOOTH",
"368 375 OFFCURVE",
"391 390 OFFCURVE",
"408 398 CURVE",
"391 407 OFFCURVE",
"368 424 OFFCURVE",
"368 450 CURVE SMOOTH",
"368 613 LINE",
"382 613 LINE SMOOTH",
"478 613 OFFCURVE",
"534 569 OFFCURVE",
"534 493 CURVE SMOOTH",
"534 484 LINE",
"580 484 LINE",
"580 686 LINE",
"34 686 LINE",
"34 484 LINE",
"97 484 LINE",
"97 493 LINE",
"96 489 LINE",
"96 575 OFFCURVE",
"140 613 OFFCURVE",
"240 613 CURVE SMOOTH",
"256 613 LINE",
"256 450 LINE SMOOTH",
"256 422 OFFCURVE",
"236 406 OFFCURVE",
"221 397 CURVE",
"236 390 OFFCURVE",
"256 375 OFFCURVE",
"256 347 CURVE SMOOTH",
"256 172 LINE SMOOTH",
"256 150 OFFCURVE",
"240 136 OFFCURVE",
"214 136 CURVE SMOOTH",
"182 136 LINE",
"182 58 LINE",
"442 58 LINE",
"442 136 LINE",
"411 136 LINE SMOOTH",
"382 136 OFFCURVE",
"368 148 OFFCURVE",
"368 171 CURVE SMOOTH"
);
}
);
width = 654;
}
);
unicode = 004C;
},
{
glyphname = M;
lastChange = "2013-09-08 12:15:02 -0500";
layers = (
{
layerId = "D4A81252-B0CF-4F3E-9514-5651FCA26467";
name = Regular;
paths = (
{
closed = 1;
nodes = (
"393 621 OFFCURVE",
"354 636 OFFCURVE",
"300 640 CURVE",
"320 569 LINE",
"363 575 OFFCURVE",
"393 588 OFFCURVE",
"393 604 CURVE SMOOTH"
);
},
{
closed = 1;
nodes = (
"338 191 LINE",
"270 421 LINE",
"203 191 LINE"
);
},
{
closed = 1;
nodes = (
"270 355 LINE",
"312 209 LINE",
"228 209 LINE"
);
},
{
closed = 1;
nodes = (
"509 4 OFFCURVE",
"501 21 OFFCURVE",
"495 39 CURVE SMOOTH",
"428 267 LINE SMOOTH",
"418 302 OFFCURVE",
"437 327 OFFCURVE",
"440 332 CURVE",
"417 345 OFFCURVE",
"401 363 OFFCURVE",
"394 386 CURVE SMOOTH",
"354 523 LINE",
"410 538 OFFCURVE",
"449 568 OFFCURVE",
"449 604 CURVE SMOOTH",
"449 647 OFFCURVE",
"387 684 OFFCURVE",
"304 692 CURVE",
"276 792 LINE",
"265 792 LINE",
"236 692 LINE",
"153 684 OFFCURVE",
"91 647 OFFCURVE",
"91 604 CURVE SMOOTH",
"91 568 OFFCURVE",
"130 538 OFFCURVE",
"186 523 CURVE",
"146 386 LINE SMOOTH",
"140 363 OFFCURVE",
"123 345 OFFCURVE",
"100 332 CURVE",
"103 327 OFFCURVE",
"122 302 OFFCURVE",
"112 267 CURVE SMOOTH",
"45 39 LINE SMOOTH",
"41 21 OFFCURVE",
"31 4 OFFCURVE",
"20 -11 CURVE",
"185 -11 LINE",
"171 19 OFFCURVE",
"178 39 OFFCURVE",
"184 60 CURVE SMOOTH",
"191 80 LINE",
"350 80 LINE",
"356 60 LINE SMOOTH",
"362 39 OFFCURVE",
"369 19 OFFCURVE",
"356 -11 CURVE",
"520 -11 LINE"
);
},
{
closed = 1;
nodes = (
"163 56 LINE SMOOTH",
"160 42 OFFCURVE",
"158 22 OFFCURVE",
"160 7 CURVE",
"53 7 LINE",
"58 15 OFFCURVE",
"60 25 OFFCURVE",
"64 33 CURVE SMOOTH",
"128 252 LINE SMOOTH",
"139 288 OFFCURVE",
"134 303 OFFCURVE",
"126 325 CURVE",
"146 341 OFFCURVE",
"159 362 OFFCURVE",
"166 385 CURVE SMOOTH",
"213 544 LINE",
"156 553 OFFCURVE",
"117 576 OFFCURVE",
"117 604 CURVE SMOOTH",
"117 636 OFFCURVE",
"174 662 OFFCURVE",
"248 667 CURVE",
"270 742 LINE",
"292 667 LINE",
"366 662 OFFCURVE",
"423 636 OFFCURVE",
"423 604 CURVE SMOOTH",
"423 576 OFFCURVE",
"384 553 OFFCURVE",
"328 544 CURVE",
"374 385 LINE SMOOTH",
"381 362 OFFCURVE",
"395 341 OFFCURVE",
"416 325 CURVE",
"408 303 OFFCURVE",
"402 288 OFFCURVE",
"412 252 CURVE SMOOTH",
"478 33 LINE SMOOTH",
"480 25 OFFCURVE",
"483 15 OFFCURVE",
"487 7 CURVE",
"380 7 LINE",
"382 22 OFFCURVE",
"380 42 OFFCURVE",
"377 56 CURVE SMOOTH",
"364 99 LINE",
"176 99 LINE"
);
},
{
closed = 1;
nodes = (
"147 588 OFFCURVE",
"177 575 OFFCURVE",
"220 569 CURVE",
"240 640 LINE",
"187 636 OFFCURVE",
"147 621 OFFCURVE",
"147 604 CURVE SMOOTH"
);
},
{
closed = 1;
nodes = (
"397 145 LINE",
"270 580 LINE",
"270 445 LINE",
"347 184 LINE"
);
},
{
closed = 1;
nodes = (
"270 718 LINE",
"255 667 LINE",
"261 668 OFFCURVE",
"265 668 OFFCURVE",
"270 668 CURVE"
);
},
{
closed = 1;
nodes = (
"270 627 LINE",
"298 627 LINE",
"293 640 LINE",
"289 640 LINE SMOOTH",
"283 642 OFFCURVE",
"277 642 OFFCURVE",
"270 642 CURVE SMOOTH",
"262 642 OFFCURVE",
"255 642 OFFCURVE",
"247 640 CURVE",
"226 568 LINE",
"220 543 LINE",
"171 378 LINE SMOOTH",
"164 357 OFFCURVE",
"152 338 OFFCURVE",
"134 323 CURVE",
"140 303 OFFCURVE",
"146 288 OFFCURVE",
"136 254 CURVE SMOOTH",
"73 38 LINE SMOOTH",
"70 30 OFFCURVE",
"67 22 OFFCURVE",
"64 14 CURVE",
"154 14 LINE",
"113 42 LINE",
"270 580 LINE"
);
},
{
closed = 1;
nodes = (
"426 45 LINE",
"397 145 LINE",
"143 145 LINE",
"171 106 LINE",
"370 106 LINE",
"382 59 LINE SMOOTH",
"387 46 OFFCURVE",
"388 28 OFFCURVE",
"387 14 CURVE",
"476 14 LINE"
);
}
);
width = 540;
}
);
unicode = 004D;
},
{
glyphname = N;
lastChange = "2013-09-08 12:16:07 -0500";
layers = (
{
layerId = "D4A81252-B0CF-4F3E-9514-5651FCA26467";
name = Regular;
paths = (
{
closed = 1;
nodes = (
"500 366 OFFCURVE",
"464 373 OFFCURVE",
"423 380 CURVE",
"405 404 OFFCURVE",
"380 426 OFFCURVE",
"353 442 CURVE",
"368 476 OFFCURVE",
"372 484 OFFCURVE",
"372 484 CURVE",
"382 477 OFFCURVE",
"397 469 OFFCURVE",
"413 468 CURVE SMOOTH",
"423 467 LINE",
"423 729 LINE",
"423 729 OFFCURVE",
"351 703 OFFCURVE",
"343 701 CURVE",
"321 719 OFFCURVE",
"284 735 OFFCURVE",
"241 735 CURVE SMOOTH",
"163 735 OFFCURVE",
"47 665 OFFCURVE",
"47 509 CURVE SMOOTH",
"47 457 OFFCURVE",
"59 414 OFFCURVE",
"83 377 CURVE",
"44 371 OFFCURVE",
"20 366 OFFCURVE",
"20 366 CURVE SMOOTH",
"20 366 OFFCURVE",
"51 358 OFFCURVE",
"104 349 CURVE",
"123 331 OFFCURVE",
"144 314 OFFCURVE",
"172 298 CURVE",
"152 255 OFFCURVE",
"140 231 OFFCURVE",
"140 231 CURVE SMOOTH",
"140 231 OFFCURVE",
"157 239 OFFCURVE",
"207 270 CURVE",
"207 270 OFFCURVE",
"210 272 OFFCURVE",
"214 274 CURVE",
"236 257 LINE",
"244 206 LINE SMOOTH",
"253 154 OFFCURVE",
"259 123 OFFCURVE",
"259 123 CURVE SMOOTH",
"259 123 OFFCURVE",
"267 154 OFFCURVE",
"275 206 CURVE",
"277 216 LINE",
"287 200 OFFCURVE",
"294 185 OFFCURVE",
"294 169 CURVE SMOOTH",
"294 148 OFFCURVE",
"288 103 OFFCURVE",
"241 103 CURVE SMOOTH",
"178 103 OFFCURVE",
"140 186 OFFCURVE",
"125 220 CURVE SMOOTH",
"113 246 OFFCURVE",
"80 264 OFFCURVE",
"60 266 CURVE SMOOTH",
"48 267 LINE",
"48 -23 LINE",
"140 9 LINE",
"144 7 LINE",
"170 -3 OFFCURVE",
"206 -18 OFFCURVE",
"246 -18 CURVE SMOOTH",
"354 -18 OFFCURVE",
"466 77 OFFCURVE",
"466 237 CURVE SMOOTH",
"466 280 OFFCURVE",
"456 320 OFFCURVE",
"438 353 CURVE",
"477 361 OFFCURVE",
"500 366 OFFCURVE",
"500 366 CURVE SMOOTH"
);
},
{
closed = 1;
nodes = (
"360 389 OFFCURVE",
"357 389 OFFCURVE",
"355 390 CURVE",
"354 392 OFFCURVE",
"353 396 OFFCURVE",
"353 398 CURVE",
"364 388 LINE"
);
},
{
closed = 1;
nodes = (
"332 432 OFFCURVE",
"330 434 OFFCURVE",
"325 439 CURVE",
"365 484 LINE",
"365 483 OFFCURVE",
"350 455 OFFCURVE",
"337 426 CURVE"
);
},
{
closed = 1;
nodes = (
"210 450 LINE",
"204 447 OFFCURVE",
"198 443 OFFCURVE",
"194 439 CURVE",
"155 484 LINE"
);
},
{
closed = 1;
nodes = (
"145 498 OFFCURVE",
"152 474 OFFCURVE",
"173 430 CURVE SMOOTH",
"178 421 LINE",
"172 410 OFFCURVE",
"166 400 OFFCURVE",
"164 390 CURVE",
"149 387 OFFCURVE",
"133 385 OFFCURVE",
"121 384 CURVE",
"97 415 OFFCURVE",
"83 455 OFFCURVE",
"83 514 CURVE SMOOTH",
"83 625 OFFCURVE",
"169 701 OFFCURVE",
"243 701 CURVE SMOOTH",
"272 701 OFFCURVE",
"291 691 OFFCURVE",
"307 680 CURVE SMOOTH",
"324 670 OFFCURVE",
"333 660 OFFCURVE",
"341 660 CURVE",
"385 678 LINE",
"385 518 LINE",
"349 544 OFFCURVE",
"338 650 OFFCURVE",
"254 650 CURVE SMOOTH",
"219 650 OFFCURVE",
"188 618 OFFCURVE",
"188 566 CURVE SMOOTH",
"188 522 OFFCURVE",
"207 493 OFFCURVE",
"236 473 CURVE",
"236 468 OFFCURVE",
"235 465 OFFCURVE",
"235 462 CURVE",
"217 455 LINE",
"190 471 OFFCURVE",
"145 498 OFFCURVE",
"145 498 CURVE SMOOTH"
);
},
{
closed = 1;
nodes = (
"244 525 OFFCURVE",
"244 520 OFFCURVE",
"243 515 CURVE",
"231 529 OFFCURVE",
"222 544 OFFCURVE",
"222 564 CURVE SMOOTH",
"222 577 OFFCURVE",
"225 614 OFFCURVE",
"257 614 CURVE SMOOTH",
"291 614 OFFCURVE",
"309 579 OFFCURVE",
"317 560 CURVE SMOOTH",
"325 541 OFFCURVE",
"340 511 OFFCURVE",
"364 490 CURVE",
"316 464 LINE",
"305 471 OFFCURVE",
"292 477 OFFCURVE",
"282 483 CURVE",
"279 504 OFFCURVE",
"276 525 OFFCURVE",
"276 525 CURVE",
"267 577 OFFCURVE",
"259 603 OFFCURVE",
"259 603 CURVE SMOOTH",
"259 603 OFFCURVE",
"253 576 OFFCURVE",
"244 525 CURVE"
);
},
{
closed = 1;
nodes = (
"187 299 OFFCURVE",
"190 295 OFFCURVE",
"195 290 CURVE",
"156 245 LINE",
"155 245 OFFCURVE",
"169 275 OFFCURVE",
"183 305 CURVE"
);
},
{
closed = 1;
nodes = (
"240 273 LINE",
"238 273 OFFCURVE",
"236 274 OFFCURVE",
"234 275 CURVE SMOOTH",
"230 277 OFFCURVE",
"226 278 OFFCURVE",
"222 280 CURVE",
"214 283 LINE",
"213 283 OFFCURVE",
"212 284 OFFCURVE",
"211 286 CURVE",
"210 286 OFFCURVE",
"208 287 OFFCURVE",
"207 288 CURVE",
"206 288 LINE",
"206 289 OFFCURVE",
"205 289 OFFCURVE",
"204 289 CURVE SMOOTH",
"199 291 LINE",
"198 291 LINE",
"198 293 OFFCURVE",
"198 293 OFFCURVE",
"197 293 CURVE SMOOTH",
"197 293 OFFCURVE",
"197 294 OFFCURVE",
"196 294 CURVE SMOOTH",
"196 295 OFFCURVE",
"195 295 OFFCURVE",
"194 296 CURVE SMOOTH",
"190 299 LINE",
"188 304 LINE",
"188 304 LINE",
"184 308 LINE",
"180 315 LINE",
"175 323 OFFCURVE",
"171 331 OFFCURVE",
"169 339 CURVE SMOOTH",
"167 341 OFFCURVE",
"167 344 OFFCURVE",
"166 346 CURVE",
"179 344 OFFCURVE",
"188 342 OFFCURVE",
"198 340 CURVE SMOOTH",
"215 338 OFFCURVE",
"228 337 OFFCURVE",
"232 337 CURVE SMOOTH",
"234 337 OFFCURVE",
"236 340 OFFCURVE",
"238 342 CURVE SMOOTH",
"240 346 OFFCURVE",
"244 348 OFFCURVE",
"247 352 CURVE SMOOTH",
"248 353 OFFCURVE",
"249 355 OFFCURVE",
"252 356 CURVE SMOOTH",
"252 357 OFFCURVE",
"253 357 OFFCURVE",
"253 358 CURVE SMOOTH",
"256 362 OFFCURVE",
"259 364 OFFCURVE",
"259 365 CURVE",
"55 365 LINE",
"55 366 OFFCURVE",
"113 376 OFFCURVE",
"163 384 CURVE SMOOTH",
"164 384 OFFCURVE",
"165 385 OFFCURVE",
"166 385 CURVE",
"166 386 OFFCURVE",
"167 388 OFFCURVE",
"169 390 CURVE",
"169 392 OFFCURVE",
"170 395 OFFCURVE",
"170 397 CURVE",
"171 397 LINE",
"171 399 OFFCURVE",
"172 401 OFFCURVE",
"173 404 CURVE",
"175 409 LINE",
"177 410 LINE",
"180 416 LINE SMOOTH",
"181 418 OFFCURVE",
"182 421 OFFCURVE",
"184 423 CURVE SMOOTH",
"187 426 LINE",
"188 431 LINE SMOOTH",
"188 431 OFFCURVE",
"189 431 OFFCURVE",
"189 432 CURVE SMOOTH",
"190 432 OFFCURVE",
"190 433 OFFCURVE",
"190 433 CURVE SMOOTH",
"191 433 OFFCURVE",
"191 433 OFFCURVE",
"191 433 CURVE SMOOTH",
"194 433 OFFCURVE",
"195 434 OFFCURVE",
"196 436 CURVE SMOOTH",
"198 438 LINE SMOOTH",
"199 439 OFFCURVE",
"200 440 OFFCURVE",
"202 440 CURVE SMOOTH",
"205 443 LINE SMOOTH",
"207 445 OFFCURVE",
"208 446 OFFCURVE",
"210 446 CURVE",
"211 447 OFFCURVE",
"212 448 OFFCURVE",
"214 448 CURVE",
"216 450 OFFCURVE",
"219 451 OFFCURVE",
"221 452 CURVE SMOOTH",
"225 454 OFFCURVE",
"230 456 OFFCURVE",
"234 457 CURVE SMOOTH",
"236 458 OFFCURVE",
"238 458 OFFCURVE",
"240 459 CURVE",
"239 450 OFFCURVE",
"237 441 OFFCURVE",
"236 433 CURVE SMOOTH",
"234 414 LINE",
"234 409 LINE SMOOTH",
"233 404 OFFCURVE",
"232 398 OFFCURVE",
"232 396 CURVE SMOOTH",
"232 394 LINE",
"238 387 OFFCURVE",
"257 368 OFFCURVE",
"259 365 CURVE",
"259 573 LINE",
"261 573 OFFCURVE",
"271 514 OFFCURVE",
"279 463 CURVE SMOOTH",
"279 462 OFFCURVE",
"280 460 OFFCURVE",
"280 458 CURVE",
"282 458 OFFCURVE",
"284 457 OFFCURVE",
"285 457 CURVE",
"289 456 OFFCURVE",
"294 454 OFFCURVE",
"298 452 CURVE SMOOTH",
"305 448 LINE SMOOTH",
"308 447 OFFCURVE",
"310 446 OFFCURVE",
"313 443 CURVE SMOOTH",
"316 441 LINE",
"321 438 LINE",
"322 437 LINE SMOOTH",
"323 436 OFFCURVE",
"323 436 OFFCURVE",
"324 436 CURVE SMOOTH",
"324 434 OFFCURVE",
"325 434 OFFCURVE",
"325 433 CURVE SMOOTH",
"326 433 OFFCURVE",
"327 433 OFFCURVE",
"327 433 CURVE SMOOTH",
"329 432 LINE SMOOTH",
"331 431 OFFCURVE",
"332 430 OFFCURVE",
"332 427 CURVE SMOOTH",
"332 425 OFFCURVE",
"333 424 OFFCURVE",
"334 423 CURVE SMOOTH",
"337 421 OFFCURVE",
"338 418 OFFCURVE",
"339 416 CURVE SMOOTH",
"345 408 OFFCURVE",
"348 399 OFFCURVE",
"350 390 CURVE SMOOTH",
"350 389 OFFCURVE",
"351 388 OFFCURVE",
"351 387 CURVE SMOOTH",
"351 386 OFFCURVE",
"353 385 OFFCURVE",
"353 385 CURVE",
"340 386 OFFCURVE",
"331 387 OFFCURVE",
"322 389 CURVE SMOOTH",
"305 391 OFFCURVE",
"292 392 OFFCURVE",
"288 394 CURVE SMOOTH",
"287 394 LINE",
"282 387 LINE SMOOTH",
"274 380 OFFCURVE",
"261 367 OFFCURVE",
"259 365 CURVE",
"467 365 LINE",
"356 346 LINE",
"353 346 LINE",
"351 344 OFFCURVE",
"351 340 OFFCURVE",
"350 338 CURVE SMOOTH",
"348 334 LINE",
"348 333 LINE SMOOTH",
"347 332 OFFCURVE",
"347 330 OFFCURVE",
"346 328 CURVE",
"339 316 LINE SMOOTH",
"338 314 OFFCURVE",
"337 312 OFFCURVE",
"334 310 CURVE",
"333 307 OFFCURVE",
"332 306 OFFCURVE",
"332 305 CURVE",
"332 304 LINE SMOOTH",
"332 303 OFFCURVE",
"331 302 OFFCURVE",
"329 300 CURVE SMOOTH",
"329 299 OFFCURVE",
"329 299 OFFCURVE",
"327 298 CURVE SMOOTH",
"326 297 LINE SMOOTH",
"326 297 OFFCURVE",
"325 297 OFFCURVE",
"325 296 CURVE SMOOTH",
"324 295 LINE SMOOTH",
"323 295 OFFCURVE",
"323 294 OFFCURVE",
"323 294 CURVE SMOOTH",
"322 294 LINE",
"317 289 LINE SMOOTH",
"315 289 OFFCURVE",
"314 289 OFFCURVE",
"313 289 CURVE SMOOTH",
"313 288 LINE SMOOTH",
"312 288 OFFCURVE",
"310 287 OFFCURVE",
"309 286 CURVE",
"307 284 OFFCURVE",
"306 284 OFFCURVE",
"305 283 CURVE SMOOTH",
"297 280 LINE",
"294 278 OFFCURVE",
"289 277 OFFCURVE",
"286 275 CURVE SMOOTH",
"284 274 OFFCURVE",
"282 274 OFFCURVE",
"280 273 CURVE",
"281 282 OFFCURVE",
"282 289 OFFCURVE",
"284 296 CURVE SMOOTH",
"284 304 OFFCURVE",
"285 312 OFFCURVE",
"285 317 CURVE SMOOTH",
"286 319 OFFCURVE",
"286 321 OFFCURVE",
"286 322 CURVE SMOOTH",
"287 328 OFFCURVE",
"287 332 OFFCURVE",
"288 335 CURVE SMOOTH",
"288 337 LINE",
"282 342 OFFCURVE",
"263 362 OFFCURVE",
"261 365 CURVE",
"259 365 LINE",
"259 159 LINE",
"240 270 LINE"
);
},
{
closed = 1;
nodes = (
"86 209 LINE",
"104 195 OFFCURVE",
"132 67 OFFCURVE",
"249 67 CURVE SMOOTH",
"289 67 OFFCURVE",
"329 102 OFFCURVE",
"329 172 CURVE SMOOTH",
"329 212 OFFCURVE",
"310 240 OFFCURVE",
"284 261 CURVE",
"284 264 OFFCURVE",
"285 267 OFFCURVE",
"285 271 CURVE",
"301 278 LINE",
"376 231 LINE",
"343 306 LINE",
"341 312 LINE",
"347 321 OFFCURVE",
"351 331 OFFCURVE",
"355 339 CURVE",
"400 347 LINE",
"418 320 OFFCURVE",
"429 283 OFFCURVE",
"429 236 CURVE SMOOTH",
"429 103 OFFCURVE",
"334 16 OFFCURVE",
"246 16 CURVE SMOOTH",
"188 16 OFFCURVE",
"155 51 OFFCURVE",
"140 51 CURVE SMOOTH",
"140 51 OFFCURVE",
"102 33 OFFCURVE",
"86 28 CURVE"
);
},
{
closed = 1;
nodes = (
"308 281 LINE",
"314 284 OFFCURVE",
"320 289 OFFCURVE",
"325 291 CURVE",
"364 245 LINE"
);
}
);
width = 520;
}
);
unicode = 004E;
},
{
glyphname = O;
lastChange = "2013-09-08 12:13:34 -0500";
layers = (
{
layerId = "D4A81252-B0CF-4F3E-9514-5651FCA26467";
name = Regular;
paths = (
{
closed = 1;
nodes = (
"587 86 LINE",
"615 0 LINE",
"496 86 LINE"
);
},
{
closed = 1;
nodes = (
"364 148 LINE",
"364 159 LINE",
"312 177 LINE",
"312 250 LINE",
"464 250 LINE",
"464 177 LINE",
"412 159 LINE",
"412 148 LINE",
"388 165 LINE"
);
},
{
closed = 1;
nodes = (
"605 433 LINE",
"756 433 LINE",
"556 288 LINE",
"556 415 LINE"
);
},
{
closed = 1;
nodes = (
"312 415 LINE",
"364 434 LINE",
"364 506 LINE",
"325 506 LINE",
"388 700 LINE",
"451 506 LINE",
"412 506 LINE",
"412 434 LINE",
"464 415 LINE",
"464 342 LINE",
"312 342 LINE"
);
},
{
closed = 1;
nodes = (
"279 86 LINE",
"161 0 LINE",
"189 86 LINE"
);
},
{
closed = 1;
nodes = (
"171 433 LINE",
"220 415 LINE",
"220 288 LINE",
"20 433 LINE"
);
},
{
closed = 1;
nodes = (
"536 430 LINE",
"536 163 LINE",
"552 175 LINE",
"552 418 LINE",
"604 437 LINE",
"604 502 LINE",
"587 486 LINE",
"587 448 LINE"
);
},
{
closed = 1;
nodes = (
"604 156 LINE",
"587 144 LINE",
"587 107 LINE",
"433 107 LINE",
"416 90 LINE",
"604 90 LINE"
);
},
{
closed = 1;
nodes = (
"468 254 LINE",
"485 271 LINE",
"291 271 LINE",
"291 163 LINE",
"308 175 LINE",
"308 254 LINE"
);
},
{
closed = 1;
nodes = (
"343 107 LINE",
"189 107 LINE",
"172 90 LINE",
"360 90 LINE",
"360 156 LINE",
"343 144 LINE"
);
},
{
closed = 1;
nodes = (
"189 448 LINE",
"172 437 LINE",
"224 418 LINE",
"240 430 LINE"
);
},
{
closed = 1;
nodes = (
"433 448 LINE",
"416 437 LINE",
"468 418 LINE",
"485 430 LINE"
);
},
{
closed = 1;
nodes = (
"360 502 LINE",
"343 486 LINE",
"343 448 LINE",
"291 430 LINE",
"291 322 LINE",
"308 338 LINE",
"308 418 LINE",
"360 437 LINE"
);
}
);
width = 776;
}
);
unicode = 004F;
},
{
glyphname = P;
lastChange = "2013-09-08 12:13:34 -0500";
layers = (
{
layerId = "D4A81252-B0CF-4F3E-9514-5651FCA26467";
name = Regular;
paths = (
{
closed = 1;
nodes = (
"408 211 OFFCURVE",
"371 211 OFFCURVE",
"315 196 CURVE",
"267 96 OFFCURVE",
"215 9 OFFCURVE",
"142 8 CURVE SMOOTH",
"45 7 OFFCURVE",
"9 85 OFFCURVE",
"23 131 CURVE SMOOTH",
"33 166 OFFCURVE",
"42 165 OFFCURVE",
"42 145 CURVE SMOOTH",
"42 135 OFFCURVE",
"69 76 OFFCURVE",
"138 79 CURVE SMOOTH",
"172 81 OFFCURVE",
"200 114 OFFCURVE",
"230 165 CURVE",
"169 138 LINE SMOOTH",
"154 130 OFFCURVE",
"153 132 OFFCURVE",
"155 145 CURVE SMOOTH",
"157 156 OFFCURVE",
"181 212 OFFCURVE",
"270 242 CURVE",
"337 377 OFFCURVE",
"425 561 OFFCURVE",
"604 654 CURVE SMOOTH",
"613 659 OFFCURVE",
"646 683 OFFCURVE",
"622 642 CURVE SMOOTH",
"538 506 OFFCURVE",
"514 386 OFFCURVE",
"518 294 CURVE",
"583 317 OFFCURVE",
"619 353 OFFCURVE",
"625 403 CURVE SMOOTH",
"627 424 OFFCURVE",
"633 424 OFFCURVE",
"644 412 CURVE SMOOTH",
"657 397 OFFCURVE",
"686 283 OFFCURVE",
"524 234 CURVE",
"545 128 OFFCURVE",
"603 67 OFFCURVE",
"634 72 CURVE SMOOTH",
"667 77 OFFCURVE",
"692 112 OFFCURVE",
"686 161 CURVE SMOOTH",
"684 190 OFFCURVE",
"695 180 OFFCURVE",
"705 170 CURVE SMOOTH",
"735 141 OFFCURVE",
"732 47 OFFCURVE",
"672 21 CURVE SMOOTH",
"586 -17 OFFCURVE",
"504 72 OFFCURVE",
"473 223 CURVE"
);
},
{
closed = 1;
nodes = (
"421 419 OFFCURVE",
"382 340 OFFCURVE",
"345 258 CURVE",
"346 259 OFFCURVE",
"346 259 OFFCURVE",
"347 259 CURVE SMOOTH",
"392 264 OFFCURVE",
"431 269 OFFCURVE",
"466 278 CURVE",
"459 334 OFFCURVE",
"460 396 OFFCURVE",
"469 462 CURVE"
);
}
);
width = 743.625;
}
);
unicode = 0050;
},
{
glyphname = Q;
lastChange = "2013-09-08 12:13:34 -0500";
layers = (
{
layerId = "D4A81252-B0CF-4F3E-9514-5651FCA26467";
name = Regular;
paths = (
{
closed = 1;
nodes = (
"590 733 OFFCURVE",
"531 668 OFFCURVE",
"531 630 CURVE",
"596 616 OFFCURVE",
"654 551 OFFCURVE",
"628 382 CURVE SMOOTH",
"607 244 OFFCURVE",
"525 157 OFFCURVE",
"474 156 CURVE",
"506 202 OFFCURVE",
"535 254 OFFCURVE",
"554 311 CURVE SMOOTH",
"571 365 OFFCURVE",
"579 410 OFFCURVE",
"579 448 CURVE SMOOTH",
"579 500 OFFCURVE",
"565 538 OFFCURVE",
"546 564 CURVE SMOOTH",
"536 576 OFFCURVE",
"525 586 OFFCURVE",
"514 592 CURVE SMOOTH",
"502 598 OFFCURVE",
"489 602 OFFCURVE",
"479 602 CURVE SMOOTH",
"452 602 OFFCURVE",
"426 591 OFFCURVE",
"405 574 CURVE SMOOTH",
"373 547 OFFCURVE",
"349 507 OFFCURVE",
"332 460 CURVE SMOOTH",
"315 413 OFFCURVE",
"305 359 OFFCURVE",
"305 307 CURVE SMOOTH",
"305 267 OFFCURVE",
"311 227 OFFCURVE",
"324 192 CURVE SMOOTH",
"332 171 OFFCURVE",
"343 151 OFFCURVE",
"357 135 CURVE",
"348 126 OFFCURVE",
"339 118 OFFCURVE",
"330 112 CURVE SMOOTH",
"310 99 OFFCURVE",
"291 92 OFFCURVE",
"272 92 CURVE SMOOTH",
"262 92 OFFCURVE",
"253 93 OFFCURVE",
"244 97 CURVE SMOOTH",
"231 101 OFFCURVE",
"222 110 OFFCURVE",
"215 124 CURVE SMOOTH",
"209 138 OFFCURVE",
"205 158 OFFCURVE",
"205 182 CURVE SMOOTH",
"205 241 OFFCURVE",
"227 323 OFFCURVE",
"259 404 CURVE SMOOTH",
"290 481 OFFCURVE",
"332 558 OFFCURVE",
"373 616 CURVE",
"364 617 OFFCURVE",
"353 617 OFFCURVE",
"345 617 CURVE SMOOTH",
"234 617 OFFCURVE",
"153 591 OFFCURVE",
"100 554 CURVE SMOOTH",
"46 516 OFFCURVE",
"20 466 OFFCURVE",
"20 420 CURVE SMOOTH",
"20 389 OFFCURVE",
"31 361 OFFCURVE",
"53 340 CURVE SMOOTH",
"65 328 OFFCURVE",
"80 321 OFFCURVE",
"97 321 CURVE SMOOTH",
"110 321 OFFCURVE",
"122 325 OFFCURVE",
"131 334 CURVE SMOOTH",
"142 344 OFFCURVE",
"148 358 OFFCURVE",
"147 373 CURVE SMOOTH",
"146 388 OFFCURVE",
"140 402 OFFCURVE",
"129 413 CURVE SMOOTH",
"123 420 OFFCURVE",
"115 426 OFFCURVE",
"107 429 CURVE",
"112 439 OFFCURVE",
"122 450 OFFCURVE",
"134 460 CURVE SMOOTH",
"153 474 OFFCURVE",
"181 487 OFFCURVE",
"218 493 CURVE",
"195 453 OFFCURVE",
"175 412 OFFCURVE",
"160 373 CURVE SMOOTH",
"132 303 OFFCURVE",
"117 236 OFFCURVE",
"117 178 CURVE SMOOTH",
"117 138 OFFCURVE",
"124 103 OFFCURVE",
"140 74 CURVE SMOOTH",
"155 44 OFFCURVE",
"180 21 OFFCURVE",
"213 9 CURVE SMOOTH",
"227 3 OFFCURVE",
"243 0 OFFCURVE",
"258 0 CURVE SMOOTH",
"288 0 OFFCURVE",
"318 10 OFFCURVE",
"347 27 CURVE SMOOTH",
"370 41 OFFCURVE",
"393 60 OFFCURVE",
"414 82 CURVE",
"459 57 OFFCURVE",
"564 47 OFFCURVE",
"644 189 CURVE SMOOTH",
"739 359 OFFCURVE",
"743 610 OFFCURVE",
"655 681 CURVE SMOOTH"
);
},
{
closed = 1;
nodes = (
"486 359 OFFCURVE",
"446 264 OFFCURVE",
"411 205 CURVE",
"377 271 OFFCURVE",
"382 370 OFFCURVE",
"411 439 CURVE SMOOTH",
"436 498 OFFCURVE",
"486 513 OFFCURVE",
"486 439 CURVE SMOOTH"
);
}
);
width = 738.24;
}
);
unicode = 0051;
},
{
glyphname = R;
lastChange = "2013-09-08 12:13:34 -0500";
layers = (
{
layerId = "D4A81252-B0CF-4F3E-9514-5651FCA26467";
name = Regular;
paths = (
{
closed = 1;
nodes = (
"457 664 OFFCURVE",
"445 671 OFFCURVE",
"431 678 CURVE SMOOTH",
"323 727 OFFCURVE",
"166 704 OFFCURVE",
"88 628 CURVE SMOOTH",
"38 579 OFFCURVE",
"13 520 OFFCURVE",
"22 471 CURVE SMOOTH",
"27 445 OFFCURVE",
"41 424 OFFCURVE",
"63 415 CURVE SMOOTH",
"89 403 OFFCURVE",
"111 403 OFFCURVE",
"130 413 CURVE SMOOTH",
"169 434 OFFCURVE",
"179 492 OFFCURVE",
"179 494 CURVE",
"180 497 LINE",
"176 497 LINE SMOOTH",
"167 497 OFFCURVE",
"155 499 OFFCURVE",
"152 510 CURVE SMOOTH",
"152 514 LINE SMOOTH",
"152 533 OFFCURVE",
"176 564 OFFCURVE",
"208 579 CURVE",
"208 161 LINE",
"174 126 OFFCURVE",
"155 89 OFFCURVE",
"155 59 CURVE SMOOTH",
"155 52 OFFCURVE",
"156 45 OFFCURVE",
"158 39 CURVE SMOOTH",
"164 21 OFFCURVE",
"179 9 OFFCURVE",
"201 5 CURVE SMOOTH",
"230 0 OFFCURVE",
"263 10 OFFCURVE",
"288 31 CURVE SMOOTH",
"312 51 OFFCURVE",
"325 78 OFFCURVE",
"325 107 CURVE SMOOTH",
"325 318 LINE",
"405 346 OFFCURVE",
"479 379 OFFCURVE",
"512 448 CURVE SMOOTH",
"522 468 OFFCURVE",
"529 492 OFFCURVE",
"531 520 CURVE SMOOTH",
"532 539 OFFCURVE",
"530 557 OFFCURVE",
"525 574 CURVE SMOOTH",
"517 606 OFFCURVE",
"497 634 OFFCURVE",
"468 655 CURVE SMOOTH"
);
},
{
closed = 1;
nodes = (
"328 418 LINE",
"328 600 LINE",
"341 601 LINE SMOOTH",
"397 605 OFFCURVE",
"429 579 OFFCURVE",
"435 526 CURVE SMOOTH",
"441 473 OFFCURVE",
"406 433 OFFCURVE",
"344 422 CURVE SMOOTH"
);
}
);
width = 551.25;
}
);
unicode = 0052;
},
{
glyphname = S;
lastChange = "2013-09-08 12:16:29 -0500";
layers = (
{
layerId = "D4A81252-B0CF-4F3E-9514-5651FCA26467";
name = Regular;
paths = (
{
closed = 1;
nodes = (
"513 246 OFFCURVE",
"511 255 OFFCURVE",
"505 262 CURVE",
"498 250 OFFCURVE",
"485 244 OFFCURVE",
"472 248 CURVE SMOOTH",
"459 251 OFFCURVE",
"450 260 OFFCURVE",
"450 267 CURVE SMOOTH",
"450 454 LINE",
"453 453 LINE SMOOTH",
"467 447 OFFCURVE",
"476 434 OFFCURVE",
"479 417 CURVE SMOOTH",
"480 414 OFFCURVE",
"480 411 OFFCURVE",
"480 408 CURVE SMOOTH",
"480 396 OFFCURVE",
"476 387 OFFCURVE",
"470 378 CURVE",
"482 380 OFFCURVE",
"520 392 OFFCURVE",
"520 439 CURVE SMOOTH",
"520 483 OFFCURVE",
"484 510 OFFCURVE",
"451 516 CURVE SMOOTH",
"450 516 LINE",
"450 646 LINE SMOOTH",
"450 654 OFFCURVE",
"459 664 OFFCURVE",
"472 666 CURVE SMOOTH",
"485 670 OFFCURVE",
"498 664 OFFCURVE",
"505 652 CURVE",
"511 660 OFFCURVE",
"513 668 OFFCURVE",
"513 676 CURVE SMOOTH",
"513 688 OFFCURVE",
"508 699 OFFCURVE",
"500 709 CURVE SMOOTH",
"482 729 OFFCURVE",
"452 729 OFFCURVE",
"420 709 CURVE SMOOTH",
"419 708 LINE",
"417 709 LINE SMOOTH",
"385 729 OFFCURVE",
"356 729 OFFCURVE",
"337 709 CURVE SMOOTH",
"329 699 OFFCURVE",
"324 688 OFFCURVE",
"324 676 CURVE SMOOTH",
"324 668 OFFCURVE",
"328 660 OFFCURVE",
"332 652 CURVE",
"340 664 OFFCURVE",
"352 670 OFFCURVE",
"365 666 CURVE SMOOTH",
"378 664 OFFCURVE",
"387 654 OFFCURVE",
"388 646 CURVE SMOOTH",
"388 502 LINE",
"387 501 LINE SMOOTH",
"361 487 OFFCURVE",
"339 469 OFFCURVE",
"319 445 CURVE SMOOTH",
"318 444 LINE",
"316 445 LINE",
"316 445 OFFCURVE",
"151 647 OFFCURVE",
"150 649 CURVE",
"152 658 OFFCURVE",
"163 665 OFFCURVE",
"175 667 CURVE SMOOTH",
"187 669 OFFCURVE",
"199 663 OFFCURVE",
"205 652 CURVE",
"210 660 OFFCURVE",
"212 668 OFFCURVE",
"212 676 CURVE SMOOTH",
"212 688 OFFCURVE",
"208 699 OFFCURVE",
"200 709 CURVE SMOOTH",
"182 729 OFFCURVE",
"152 729 OFFCURVE",
"119 709 CURVE SMOOTH",
"118 708 LINE",
"117 709 LINE SMOOTH",
"85 729 OFFCURVE",
"55 729 OFFCURVE",
"37 709 CURVE SMOOTH",
"28 699 OFFCURVE",
"24 688 OFFCURVE",
"24 676 CURVE SMOOTH",
"24 668 OFFCURVE",
"27 660 OFFCURVE",
"32 652 CURVE",
"39 664 OFFCURVE",
"51 670 OFFCURVE",
"65 666 CURVE SMOOTH",
"78 664 OFFCURVE",
"87 654 OFFCURVE",
"87 646 CURVE SMOOTH",
"87 516 LINE",
"86 515 LINE SMOOTH",
"53 509 OFFCURVE",
"20 482 OFFCURVE",
"20 439 CURVE SMOOTH",
"20 392 OFFCURVE",
"58 380 OFFCURVE",
"70 378 CURVE",
"64 387 OFFCURVE",
"59 396 OFFCURVE",
"59 408 CURVE SMOOTH",
"59 411 OFFCURVE",
"60 413 OFFCURVE",
"60 416 CURVE SMOOTH",
"62 432 OFFCURVE",
"71 445 OFFCURVE",
"85 451 CURVE SMOOTH",
"87 453 LINE",
"87 267 LINE SMOOTH",
"87 260 OFFCURVE",
"78 251 OFFCURVE",
"65 248 CURVE SMOOTH",
"51 244 OFFCURVE",
"39 250 OFFCURVE",
"32 262 CURVE",
"27 255 OFFCURVE",
"24 246 OFFCURVE",
"24 238 CURVE SMOOTH",
"24 227 OFFCURVE",
"28 215 OFFCURVE",
"37 206 CURVE SMOOTH",
"55 186 OFFCURVE",
"85 186 OFFCURVE",
"117 206 CURVE SMOOTH",
"118 207 LINE",
"119 206 LINE SMOOTH",
"152 186 OFFCURVE",
"182 186 OFFCURVE",
"200 206 CURVE SMOOTH",
"208 215 OFFCURVE",
"212 227 OFFCURVE",
"212 238 CURVE SMOOTH",
"212 246 OFFCURVE",
"210 255 OFFCURVE",
"205 262 CURVE",
"198 250 OFFCURVE",
"185 244 OFFCURVE",
"172 248 CURVE SMOOTH",
"159 251 OFFCURVE",
"150 260 OFFCURVE",
"150 267 CURVE SMOOTH",
"150 439 LINE",
"153 437 LINE SMOOTH",
"199 405 OFFCURVE",
"234 342 OFFCURVE",
"239 301 CURVE",
"239 89 LINE SMOOTH",
"239 67 OFFCURVE",
"223 49 OFFCURVE",
"208 46 CURVE SMOOTH",
"198 42 OFFCURVE",
"189 48 OFFCURVE",
"183 57 CURVE",
"178 50 OFFCURVE",
"176 41 OFFCURVE",
"176 34 CURVE SMOOTH",
"176 24 OFFCURVE",
"179 14 OFFCURVE",
"186 6 CURVE SMOOTH",
"204 -14 OFFCURVE",
"235 -13 OFFCURVE",
"269 8 CURVE SMOOTH",
"271 8 LINE SMOOTH",
"305 -13 OFFCURVE",
"335 -14 OFFCURVE",
"353 6 CURVE SMOOTH",
"360 14 OFFCURVE",
"364 24 OFFCURVE",
"364 34 CURVE SMOOTH",
"364 41 OFFCURVE",
"361 50 OFFCURVE",
"357 57 CURVE",
"351 48 OFFCURVE",
"342 44 OFFCURVE",
"332 46 CURVE SMOOTH",
"317 50 OFFCURVE",
"300 68 OFFCURVE",
"300 89 CURVE SMOOTH",
"300 299 LINE",
"301 312 OFFCURVE",
"308 331 OFFCURVE",
"316 351 CURVE SMOOTH",
"318 353 LINE",
"320 351 LINE",
"320 351 OFFCURVE",
"387 268 OFFCURVE",
"387 266 CURVE SMOOTH",
"387 258 OFFCURVE",
"377 250 OFFCURVE",
"364 248 CURVE SMOOTH",
"358 246 OFFCURVE",
"342 245 OFFCURVE",
"332 261 CURVE",
"328 255 OFFCURVE",
"324 246 OFFCURVE",
"324 238 CURVE SMOOTH",
"324 227 OFFCURVE",
"329 215 OFFCURVE",
"337 206 CURVE SMOOTH",
"356 186 OFFCURVE",
"385 186 OFFCURVE",
"417 206 CURVE SMOOTH",
"419 207 LINE",
"420 206 LINE SMOOTH",
"452 186 OFFCURVE",
"482 186 OFFCURVE",
"500 206 CURVE SMOOTH",
"508 215 OFFCURVE",
"513 227 OFFCURVE",
"513 238 CURVE SMOOTH"
);
},
{
closed = 1;
nodes = (
"268 362 LINE SMOOTH",
"237 444 OFFCURVE",
"187 484 OFFCURVE",
"151 502 CURVE SMOOTH",
"150 503 LINE",
"150 560 LINE",
"285 394 LINE",
"286 393 LINE",
"270 357 LINE"
);
},
{
closed = 1;
nodes = (
"351 404 LINE",
"352 405 LINE SMOOTH",
"362 417 OFFCURVE",
"374 427 OFFCURVE",
"385 436 CURVE SMOOTH",
"388 438 LINE",
"388 359 LINE"
);
}
);
width = 540;
}
);
unicode = 0053;
},
{
glyphname = T;
lastChange = "2013-09-08 12:13:34 -0500";
layers = (
{
layerId = "D4A81252-B0CF-4F3E-9514-5651FCA26467";
name = Regular;
paths = (
{
closed = 1;
nodes = (
"563 15 LINE",
"715 15 LINE",
"503 545 LINE",
"368 296 LINE",
"254 506 LINE",
"307 540 OFFCURVE",
"363 569 OFFCURVE",
"389 582 CURVE",
"355 598 LINE",
"324 583 OFFCURVE",
"281 559 OFFCURVE",
"239 533 CURVE",
"239 534 LINE",
"232 547 LINE",
"223 523 LINE",
"208 513 LINE SMOOTH",
"60 411 OFFCURVE",
"71 342 OFFCURVE",
"113 307 CURVE SMOOTH",
"120 301 OFFCURVE",
"129 295 OFFCURVE",
"137 291 CURVE SMOOTH",
"149 285 OFFCURVE",
"160 280 OFFCURVE",
"172 277 CURVE SMOOTH",
"173 276 OFFCURVE",
"174 276 OFFCURVE",
"176 275 CURVE",
"170 275 LINE",
"91 65 LINE",
"137 65 LINE",
"244 337 LINE",
"363 117 LINE",
"368 107 LINE",
"373 117 LINE",
"492 337 LINE",
"598 65 LINE",
"644 65 LINE",
"642 70 LINE",
"562 275 LINE",
"498 438 LINE",
"373 207 LINE",
"368 198 LINE",
"363 207 LINE",
"237 438 LINE",
"171 278 LINE",
"170 278 OFFCURVE",
"169 279 OFFCURVE",
"168 279 CURVE",
"167 280 OFFCURVE",
"167 280 OFFCURVE",
"166 280 CURVE",
"165 281 OFFCURVE",
"164 282 OFFCURVE",
"163 282 CURVE SMOOTH",
"161 284 LINE",
"159 285 LINE SMOOTH",
"154 288 OFFCURVE",
"151 291 OFFCURVE",
"149 293 CURVE SMOOTH",
"147 295 LINE",
"221 484 LINE",
"228 500 LINE",
"232 512 LINE",
"236 506 LINE",
"240 497 LINE",
"368 262 LINE",
"503 512 LINE",
"691 32 LINE",
"648 56 LINE",
"591 56 LINE",
"491 311 LINE",
"368 84 LINE",
"245 311 LINE",
"145 56 LINE",
"87 56 LINE",
"44 32 LINE",
"140 277 LINE",
"141 277 LINE",
"129 280 LINE",
"22 334 OFFCURVE",
"50 471 OFFCURVE",
"347 609 CURVE SMOOTH",
"458 661 OFFCURVE",
"534 700 OFFCURVE",
"534 700 CURVE",
"506 689 LINE",
"506 689 OFFCURVE",
"383 643 OFFCURVE",
"358 633 CURVE SMOOTH",
"346 630 OFFCURVE",
"330 627 OFFCURVE",
"318 628 CURVE SMOOTH",
"309 628 OFFCURVE",
"293 630 OFFCURVE",
"275 637 CURVE SMOOTH",
"269 640 OFFCURVE",
"238 653 OFFCURVE",
"211 665 CURVE SMOOTH",
"210 665 OFFCURVE",
"209 666 OFFCURVE",
"209 666 CURVE",
"190 676 LINE",
"192 668 OFFCURVE",
"187 622 OFFCURVE",
"157 581 CURVE SMOOTH",
"125 536 OFFCURVE",
"11 437 OFFCURVE",
"46 344 CURVE SMOOTH",
"65 292 OFFCURVE",
"114 282 OFFCURVE",
"126 280 CURVE",
"20 15 LINE",
"172 15 LINE",
"250 215 LINE",
"367 0 LINE",
"485 215 LINE"
);
},
{
closed = 1;
nodes = (
"131 312 OFFCURVE",
"128 318 OFFCURVE",
"125 322 CURVE SMOOTH",
"122 327 OFFCURVE",
"121 331 OFFCURVE",
"121 331 CURVE",
"118 344 LINE SMOOTH",
"113 385 OFFCURVE",
"151 429 OFFCURVE",
"201 469 CURVE",
"136 306 LINE"
);
}
);
width = 735;
}
);
unicode = 0054;
},
{
glyphname = U;
lastChange = "2013-09-08 12:13:34 -0500";
layers = (
{
layerId = "D4A81252-B0CF-4F3E-9514-5651FCA26467";
name = Regular;
paths = (
{
closed = 1;
nodes = (
"487 503 OFFCURVE",
"492 542 OFFCURVE",
"514 580 CURVE",
"455 595 OFFCURVE",
"410 651 OFFCURVE",
"395 700 CURVE",
"370 676 OFFCURVE",
"346 671 OFFCURVE",
"308 671 CURVE SMOOTH",
"55 671 LINE",
"20 584 LINE",
"41 575 OFFCURVE",
"55 556 OFFCURVE",
"55 532 CURVE SMOOTH",
"55 136 LINE SMOOTH",
"55 113 OFFCURVE",
"41 93 OFFCURVE",
"20 84 CURVE",
"55 0 LINE",
"151 0 LINE",
"186 84 LINE",
"165 92 OFFCURVE",
"151 113 OFFCURVE",
"151 136 CURVE SMOOTH",
"151 292 LINE",
"308 292 LINE SMOOTH",
"346 292 OFFCURVE",
"370 283 OFFCURVE",
"395 259 CURVE",
"411 308 OFFCURVE",
"459 345 OFFCURVE",
"518 359 CURVE",
"495 398 OFFCURVE",
"487 432 OFFCURVE",
"487 468 CURVE SMOOTH"
);
},
{
closed = 1;
nodes = (
"152 378 LINE",
"152 587 LINE",
"353 587 LINE SMOOTH",
"385 587 OFFCURVE",
"404 567 OFFCURVE",
"404 541 CURVE SMOOTH",
"404 421 LINE SMOOTH",
"404 393 OFFCURVE",
"389 378 OFFCURVE",
"353 378 CURVE SMOOTH"
);
}
);
width = 538;
}
);
unicode = 0055;
},
{
glyphname = V;
lastChange = "2013-09-08 12:13:34 -0500";
layers = (
{
layerId = "D4A81252-B0CF-4F3E-9514-5651FCA26467";
name = Regular;
paths = (
{
closed = 1;
nodes = (
"519 67 OFFCURVE",
"490 59 OFFCURVE",
"471 59 CURVE SMOOTH",
"200 59 LINE",
"200 127 LINE",
"234 118 OFFCURVE",
"269 111 OFFCURVE",
"302 109 CURVE SMOOTH",
"431 101 OFFCURVE",
"553 136 OFFCURVE",
"553 256 CURVE SMOOTH",
"553 316 OFFCURVE",
"508 370 OFFCURVE",
"416 377 CURVE",
"416 427 LINE",
"484 427 LINE",
"459 472 LINE",
"318 472 LINE",
"293 427 LINE",
"361 427 LINE",
"361 377 LINE",
"200 377 LINE",
"200 538 LINE",
"260 539 OFFCURVE",
"374 534 OFFCURVE",
"463 502 CURVE",
"471 516 OFFCURVE",
"485 539 OFFCURVE",
"503 569 CURVE",
"478 565 OFFCURVE",
"448 564 OFFCURVE",
"420 571 CURVE SMOOTH",
"387 579 OFFCURVE",
"288 597 OFFCURVE",
"200 596 CURVE",
"200 648 LINE",
"240 648 LINE",
"240 700 LINE",
"100 700 LINE",
"100 648 LINE",
"141 648 LINE",
"141 594 LINE",
"73 585 OFFCURVE",
"20 526 OFFCURVE",
"20 455 CURVE SMOOTH",
"20 385 OFFCURVE",
"73 330 OFFCURVE",
"141 321 CURVE",
"141 209 LINE",
"125 215 OFFCURVE",
"110 222 OFFCURVE",
"95 229 CURVE",
"57 180 LINE",
"82 168 OFFCURVE",
"111 156 OFFCURVE",
"141 146 CURVE",
"141 59 LINE",
"100 59 LINE",
"100 0 LINE",
"471 0 LINE SMOOTH",
"518 0 OFFCURVE",
"555 16 OFFCURVE",
"584 48 CURVE",
"542 94 LINE"
);
},
{
closed = 1;
nodes = (
"99 381 OFFCURVE",
"73 416 OFFCURVE",
"73 459 CURVE SMOOTH",
"73 498 OFFCURVE",
"102 531 OFFCURVE",
"141 540 CURVE",
"141 376 LINE"
);
},
{
closed = 1;
nodes = (
"361 267 LINE",
"416 267 LINE",
"416 318 LINE",
"448 314 OFFCURVE",
"488 301 OFFCURVE",
"488 248 CURVE SMOOTH",
"488 172 OFFCURVE",
"355 145 OFFCURVE",
"200 189 CURVE",
"200 319 LINE",
"361 319 LINE"
);
}
);
width = 604;
}
);
unicode = 0056;
},
{
glyphname = W;
lastChange = "2013-09-08 12:13:34 -0500";
layers = (
{
layerId = "D4A81252-B0CF-4F3E-9514-5651FCA26467";
name = Regular;
paths = (
{
closed = 1;
nodes = (
"228 109 OFFCURVE",
"304 26 OFFCURVE",
"497 26 CURVE SMOOTH",
"666 26 OFFCURVE",
"797 109 OFFCURVE",
"858 212 CURVE",
"726 212 LINE",
"665 165 OFFCURVE",
"589 127 OFFCURVE",
"493 127 CURVE SMOOTH",
"404 127 OFFCURVE",
"311 164 OFFCURVE",
"267 232 CURVE SMOOTH",
"249 258 OFFCURVE",
"239 289 OFFCURVE",
"239 324 CURVE SMOOTH",
"239 384 OFFCURVE",
"313 509 OFFCURVE",
"502 509 CURVE SMOOTH",
"613 509 OFFCURVE",
"701 458 OFFCURVE",
"729 413 CURVE",
"862 413 LINE",
"800 536 OFFCURVE",
"641 609 OFFCURVE",
"481 609 CURVE SMOOTH",
"324 609 OFFCURVE",
"204 519 OFFCURVE",
"135 437 CURVE SMOOTH",
"44 329 OFFCURVE",
"20 321 OFFCURVE",
"20 321 CURVE",
"79 278 OFFCURVE",
"102 243 OFFCURVE",
"139 204 CURVE SMOOTH"
);
},
{
closed = 1;
nodes = (
"551 350 LINE",
"551 336 LINE",
"581 336 LINE",
"581 375 LINE",
"457 375 LINE",
"457 350 LINE",
"477 350 LINE",
"477 268 LINE",
"457 268 LINE",
"457 243 LINE",
"581 243 LINE",
"581 282 LINE",
"551 282 LINE",
"551 268 LINE",
"507 268 LINE",
"507 296 LINE",
"543 296 LINE",
"543 321 LINE",
"507 321 LINE",
"507 350 LINE"
);
},
{
closed = 1;
nodes = (
"409 268 LINE",
"394 303 LINE",
"416 321 LINE",
"416 350 LINE",
"386 375 LINE",
"288 375 LINE",
"288 350 LINE",
"307 350 LINE",
"307 268 LINE",
"288 268 LINE",
"288 243 LINE",
"357 243 LINE",
"357 268 LINE",
"337 268 LINE",
"337 297 LINE",
"365 297 LINE",
"371 282 LINE",
"388 243 LINE",
"426 243 LINE",
"426 268 LINE"
);
},
{
closed = 1;
nodes = (
"337 321 LINE",
"337 350 LINE",
"379 350 LINE",
"386 344 LINE",
"386 327 LINE",
"379 321 LINE"
);
},
{
closed = 1;
nodes = (
"735 350 LINE",
"705 375 LINE",
"612 375 LINE",
"612 350 LINE",
"632 350 LINE",
"632 268 LINE",
"612 268 LINE",
"612 243 LINE",
"705 243 LINE",
"735 268 LINE"
);
},
{
closed = 1;
nodes = (
"661 268 LINE",
"661 350 LINE",
"698 350 LINE",
"706 344 LINE",
"706 274 LINE",
"698 268 LINE"
);
},
{
closed = 1;
nodes = (
"803 243 LINE",
"840 243 LINE",
"870 268 LINE",
"870 296 LINE",
"840 321 LINE",
"803 321 LINE",
"796 327 LINE",
"796 344 LINE",
"803 350 LINE",
"833 350 LINE",
"840 344 LINE",
"840 336 LINE",
"870 336 LINE",
"870 375 LINE",
"840 375 LINE",
"840 369 LINE",
"833 375 LINE",
"796 375 LINE",
"766 350 LINE",
"766 321 LINE",
"795 296 LINE",
"833 296 LINE",
"840 290 LINE",
"840 274 LINE",
"833 268 LINE",
"802 268 LINE",
"795 274 LINE",
"795 282 LINE",
"766 282 LINE",
"766 243 LINE",
"795 243 LINE",
"795 249 LINE"
);
}
);
width = 890;
}
);
unicode = 0057;
},
{
glyphname = X;
lastChange = "2013-09-08 12:13:34 -0500";
layers = (
{
layerId = "D4A81252-B0CF-4F3E-9514-5651FCA26467";
name = Regular;
paths = (
{
closed = 1;
nodes = (
"20 539 OFFCURVE",
"175 694 OFFCURVE",
"367 694 CURVE SMOOTH",
"558 694 OFFCURVE",
"714 539 OFFCURVE",
"714 347 CURVE SMOOTH",
"714 155 OFFCURVE",
"558 0 OFFCURVE",
"367 0 CURVE SMOOTH",
"175 0 OFFCURVE",
"20 155 OFFCURVE",
"20 347 CURVE SMOOTH"
);
},
{
closed = 1;
nodes = (
"508 91 OFFCURVE",
"623 205 OFFCURVE",
"623 347 CURVE SMOOTH",
"623 488 OFFCURVE",
"508 603 OFFCURVE",
"367 603 CURVE SMOOTH",
"225 603 OFFCURVE",
"111 488 OFFCURVE",
"111 347 CURVE SMOOTH",
"111 205 OFFCURVE",
"225 91 OFFCURVE",
"367 91 CURVE SMOOTH"
);
},
{
closed = 1;
nodes = (
"456 237 OFFCURVE",
"414 213 OFFCURVE",
"367 213 CURVE SMOOTH",
"293 213 OFFCURVE",
"233 273 OFFCURVE",
"233 347 CURVE SMOOTH",
"233 421 OFFCURVE",
"293 481 OFFCURVE",
"367 481 CURVE SMOOTH",
"416 481 OFFCURVE",
"458 455 OFFCURVE",
"482 416 CURVE",
"548 480 LINE",
"507 536 OFFCURVE",
"441 572 OFFCURVE",
"367 572 CURVE SMOOTH",
"243 572 OFFCURVE",
"142 471 OFFCURVE",
"142 347 CURVE SMOOTH",
"142 223 OFFCURVE",
"243 122 OFFCURVE",
"367 122 CURVE SMOOTH",
"440 122 OFFCURVE",
"505 157 OFFCURVE",
"546 212 CURVE",
"480 275 LINE"
);
},
{
closed = 1;
nodes = (
"327 406 LINE",
"368 406 LINE",
"368 324 LINE SMOOTH",
"368 294 OFFCURVE",
"361 287 OFFCURVE",
"337 287 CURVE SMOOTH",
"295 287 LINE SMOOTH",
"276 287 OFFCURVE",
"269 300 OFFCURVE",
"269 326 CURVE SMOOTH",
"269 406 LINE",
"310 406 LINE",
"310 325 LINE SMOOTH",
"310 314 OFFCURVE",
"327 314 OFFCURVE",
"327 325 CURVE SMOOTH"
);
},
{
closed = 1;
nodes = (
"477 350 OFFCURVE",
"480 358 OFFCURVE",
"480 373 CURVE SMOOTH",
"480 401 OFFCURVE",
"470 406 OFFCURVE",
"446 406 CURVE SMOOTH",
"382 406 LINE",
"382 287 LINE",
"446 287 LINE SMOOTH",
"469 287 OFFCURVE",
"480 291 OFFCURVE",
"480 318 CURVE SMOOTH",
"480 328 OFFCURVE",
"480 340 OFFCURVE",
"469 346 CURVE"
);
},
{
closed = 1;
nodes = (
"441 313 OFFCURVE",
"433 314 OFFCURVE",
"425 314 CURVE",
"425 330 LINE",
"438 330 OFFCURVE",
"439 331 OFFCURVE",
"441 325 CURVE SMOOTH",
"442 324 OFFCURVE",
"441 321 OFFCURVE",
"441 319 CURVE SMOOTH"
);
},
{
closed = 1;
nodes = (
"442 361 OFFCURVE",
"432 362 OFFCURVE",
"425 362 CURVE",
"425 378 LINE",
"437 378 OFFCURVE",
"442 379 OFFCURVE",
"442 374 CURVE SMOOTH",
"442 367 LINE SMOOTH"
);
},
{
closed = 1;
nodes = (
"582 287 OFFCURVE",
"594 293 OFFCURVE",
"594 312 CURVE SMOOTH",
"594 339 LINE SMOOTH",
"594 353 OFFCURVE",
"584 362 OFFCURVE",
"570 362 CURVE SMOOTH",
"541 362 LINE SMOOTH",
"533 362 OFFCURVE",
"534 373 OFFCURVE",
"534 377 CURVE SMOOTH",
"534 382 OFFCURVE",
"551 384 OFFCURVE",
"551 375 CURVE SMOOTH",
"551 370 LINE",
"594 370 LINE",
"594 397 OFFCURVE",
"589 406 OFFCURVE",
"561 406 CURVE SMOOTH",
"523 406 LINE SMOOTH",
"505 406 OFFCURVE",
"495 399 OFFCURVE",
"495 378 CURVE SMOOTH",
"494 357 OFFCURVE",
"495 366 OFFCURVE",
"495 359 CURVE SMOOTH",
"495 351 OFFCURVE",
"494 334 OFFCURVE",
"517 334 CURVE SMOOTH",
"547 334 LINE SMOOTH",
"555 334 OFFCURVE",
"553 324 OFFCURVE",
"553 324 CURVE",
"553 318 LINE SMOOTH",
"553 311 OFFCURVE",
"539 311 OFFCURVE",
"536 317 CURVE SMOOTH",
"534 320 OFFCURVE",
"535 326 OFFCURVE",
"535 326 CURVE SMOOTH",
"495 326 LINE",
"495 318 OFFCURVE",
"490 287 OFFCURVE",
"515 287 CURVE SMOOTH",
"561 287 LINE SMOOTH"
);
}
);
width = 734;
}
);
unicode = 0058;
},
{
glyphname = Y;
lastChange = "2013-09-08 12:13:34 -0500";
layers = (
{
layerId = "D4A81252-B0CF-4F3E-9514-5651FCA26467";
name = Regular;
paths = (
{
closed = 1;
nodes = (
"509 669 LINE",
"456 575 LINE",
"451 567 LINE",
"369 422 LINE",
"366 457 LINE SMOOTH",
"362 498 OFFCURVE",
"346 533 OFFCURVE",
"320 559 CURVE",
"320 559 OFFCURVE",
"306 573 OFFCURVE",
"304 576 CURVE",
"303 576 LINE",
"299 580 OFFCURVE",
"295 584 OFFCURVE",
"291 587 CURVE SMOOTH",
"259 613 OFFCURVE",
"216 624 OFFCURVE",
"172 620 CURVE SMOOTH",
"131 616 OFFCURVE",
"93 597 OFFCURVE",
"65 566 CURVE SMOOTH",
"38 536 OFFCURVE",
"22 496 OFFCURVE",
"22 456 CURVE SMOOTH",
"22 416 OFFCURVE",
"35 380 OFFCURVE",
"59 357 CURVE SMOOTH",
"75 341 LINE SMOOTH",
"90 325 OFFCURVE",
"110 316 OFFCURVE",
"130 314 CURVE",
"119 273 LINE",
"116 264 LINE",
"105 222 LINE",
"103 215 LINE SMOOTH",
"101 207 OFFCURVE",
"100 204 OFFCURVE",
"99 203 CURVE",
"88 196 OFFCURVE",
"74 183 OFFCURVE",
"68 162 CURVE SMOOTH",
"58 124 LINE",
"88 94 LINE",
"99 100 LINE SMOOTH",
"105 104 OFFCURVE",
"114 109 OFFCURVE",
"125 115 CURVE",
"121 99 LINE",
"119 98 LINE SMOOTH",
"89 81 OFFCURVE",
"60 62 OFFCURVE",
"32 40 CURVE SMOOTH",
"20 30 LINE",
"43 0 LINE",
"56 10 LINE SMOOTH",
"82 31 OFFCURVE",
"110 49 OFFCURVE",
"138 65 CURVE",
"138 65 OFFCURVE",
"139 66 OFFCURVE",
"140 66 CURVE",
"174 57 LINE",
"177 57 LINE SMOOTH",
"181 60 OFFCURVE",
"186 62 OFFCURVE",
"192 65 CURVE SMOOTH",
"196 66 OFFCURVE",
"200 68 OFFCURVE",
"205 70 CURVE SMOOTH",
"267 98 OFFCURVE",
"387 139 OFFCURVE",
"558 114 CURVE SMOOTH",
"562 114 OFFCURVE",
"565 113 OFFCURVE",
"568 113 CURVE SMOOTH",
"579 111 LINE",
"584 110 LINE",
"589 130 LINE",
"624 127 LINE",
"628 157 LINE",
"597 170 LINE",
"602 190 LINE",
"586 193 LINE",
"576 196 LINE",
"573 196 LINE",
"572 206 LINE",
"549 229 LINE",
"549 229 OFFCURVE",
"543 230 OFFCURVE",
"538 230 CURVE",
"532 246 OFFCURVE",
"533 267 OFFCURVE",
"536 280 CURVE SMOOTH",
"559 360 LINE",
"563 376 LINE",
"569 395 LINE",
"573 412 LINE",
"579 434 LINE",
"582 444 LINE",
"626 602 LINE SMOOTH",
"626 603 OFFCURVE",
"627 604 OFFCURVE",
"627 605 CURVE",
"628 606 OFFCURVE",
"630 607 OFFCURVE",
"630 608 CURVE SMOOTH",
"639 614 OFFCURVE",
"652 623 OFFCURVE",
"659 647 CURVE SMOOTH",
"665 672 LINE",
"637 700 LINE"
);
},
{
closed = 1;
nodes = (
"42 27 LINE",
"69 48 OFFCURVE",
"97 68 OFFCURVE",
"127 84 CURVE",
"130 79 LINE",
"101 62 OFFCURVE",
"72 43 OFFCURVE",
"46 22 CURVE"
);
},
{
closed = 1;
nodes = (
"454 166 LINE",
"421 146 LINE",
"400 164 LINE",
"417 184 LINE"
);
},
{
closed = 1;
nodes = (
"384 166 OFFCURVE",
"373 165 OFFCURVE",
"363 163 CURVE",
"383 191 LINE",
"388 191 OFFCURVE",
"392 191 OFFCURVE",
"396 192 CURVE SMOOTH",
"403 192 OFFCURVE",
"410 193 OFFCURVE",
"417 193 CURVE",
"394 167 LINE"
);
},
{
closed = 1;
nodes = (
"425 193 LINE",
"442 194 OFFCURVE",
"459 194 OFFCURVE",
"476 193 CURVE",
"484 187 LINE",
"463 188 OFFCURVE",
"441 188 OFFCURVE",
"420 187 CURVE"
);
},
{
closed = 1;
nodes = (
"408 275 LINE",
"411 250 OFFCURVE",
"420 227 OFFCURVE",
"435 210 CURVE",
"412 209 OFFCURVE",
"390 208 OFFCURVE",
"368 205 CURVE"
);
},
{
closed = 1;
nodes = (
"354 162 LINE",
"344 160 OFFCURVE",
"333 159 OFFCURVE",
"323 157 CURVE",
"342 185 LINE",
"353 187 OFFCURVE",
"364 189 OFFCURVE",
"375 190 CURVE"
);
},
{
closed = 1;
nodes = (
"304 153 OFFCURVE",
"294 151 OFFCURVE",
"284 148 CURVE",
"301 178 LINE",
"334 184 LINE",
"315 155 LINE"
);
},
{
closed = 1;
nodes = (
"245 137 LINE",
"260 167 LINE",
"293 176 LINE",
"276 146 LINE"
);
},
{
closed = 1;
nodes = (
"254 262 LINE",
"260 202 LINE",
"275 188 LINE",
"260 184 OFFCURVE",
"244 179 OFFCURVE",
"230 175 CURVE"
);
},
{
closed = 1;
nodes = (
"237 134 LINE",
"227 130 OFFCURVE",
"217 127 OFFCURVE",
"207 123 CURVE",
"221 155 LINE",
"231 158 OFFCURVE",
"242 162 OFFCURVE",
"253 165 CURVE"
);
},
{
closed = 1;
nodes = (
"190 116 OFFCURVE",
"180 111 OFFCURVE",
"170 107 CURVE",
"182 139 LINE",
"192 144 OFFCURVE",
"202 148 OFFCURVE",
"213 152 CURVE",
"199 120 LINE"
);
},
{
closed = 1;
nodes = (
"153 99 OFFCURVE",
"144 94 OFFCURVE",
"134 89 CURVE",
"144 122 LINE",
"154 127 OFFCURVE",
"164 132 OFFCURVE",
"174 136 CURVE",
"163 103 LINE"
);
},
{
closed = 1;
nodes = (
"138 83 LINE",
"165 98 LINE",
"200 86 LINE",
"191 82 OFFCURVE",
"182 78 OFFCURVE",
"173 73 CURVE"
);
},
{
closed = 1;
nodes = (
"173 101 LINE",
"183 106 OFFCURVE",
"192 110 OFFCURVE",
"202 114 CURVE",
"235 100 LINE",
"226 97 OFFCURVE",
"217 93 OFFCURVE",
"208 89 CURVE"
);
},
{
closed = 1;
nodes = (
"210 117 LINE",
"220 121 OFFCURVE",
"229 125 OFFCURVE",
"239 128 CURVE",
"272 112 LINE",
"244 103 LINE"
);
},
{
closed = 1;
nodes = (
"247 131 LINE",
"277 140 LINE",
"309 122 LINE",
"299 120 OFFCURVE",
"290 117 OFFCURVE",
"280 114 CURVE"
);
},
{
closed = 1;
nodes = (
"286 142 LINE",
"296 144 OFFCURVE",
"306 147 OFFCURVE",
"316 149 CURVE",
"346 129 LINE",
"337 128 OFFCURVE",
"327 126 OFFCURVE",
"317 124 CURVE"
);
},
{
closed = 1;
nodes = (
"325 151 LINE",
"335 153 OFFCURVE",
"345 154 OFFCURVE",
"355 156 CURVE",
"384 134 LINE",
"355 131 LINE"
);
},
{
closed = 1;
nodes = (
"398 136 OFFCURVE",
"396 135 OFFCURVE",
"393 135 CURVE",
"364 157 LINE",
"374 158 OFFCURVE",
"385 160 OFFCURVE",
"395 160 CURVE",
"423 137 LINE",
"415 137 OFFCURVE",
"408 136 OFFCURVE",
"400 136 CURVE SMOOTH"
);
},
{
closed = 1;
nodes = (
"527 137 OFFCURVE",
"479 139 OFFCURVE",
"431 137 CURVE",
"424 143 LINE",
"475 146 OFFCURVE",
"525 139 OFFCURVE",
"573 129 CURVE",
"573 128 LINE"
);
},
{
closed = 1;
nodes = (
"566 181 OFFCURVE",
"574 180 OFFCURVE",
"583 178 CURVE",
"582 177 LINE",
"573 179 OFFCURVE",
"564 180 OFFCURVE",
"554 182 CURVE",
"558 183 LINE"
);
},
{
closed = 1;
nodes = (
"611 145 LINE",
"562 157 OFFCURVE",
"512 162 OFFCURVE",
"461 163 CURVE",
"466 166 LINE",
"460 169 LINE",
"512 168 OFFCURVE",
"562 159 OFFCURVE",
"611 146 CURVE"
);
},
{
closed = 1;
nodes = (
"623 648 OFFCURVE",
"613 641 OFFCURVE",
"606 636 CURVE SMOOTH",
"601 632 OFFCURVE",
"598 630 OFFCURVE",
"596 625 CURVE SMOOTH",
"506 299 LINE SMOOTH",
"500 279 OFFCURVE",
"501 246 OFFCURVE",
"514 228 CURVE SMOOTH",
"517 222 OFFCURVE",
"522 219 OFFCURVE",
"527 217 CURVE SMOOTH",
"529 216 OFFCURVE",
"531 215 OFFCURVE",
"533 215 CURVE SMOOTH",
"541 214 LINE",
"542 198 LINE",
"534 196 LINE SMOOTH",
"501 188 OFFCURVE",
"471 195 OFFCURVE",
"450 217 CURVE SMOOTH",
"425 243 OFFCURVE",
"416 286 OFFCURVE",
"428 327 CURVE",
"430 336 LINE SMOOTH",
"431 341 OFFCURVE",
"433 347 OFFCURVE",
"435 355 CURVE SMOOTH",
"458 437 LINE",
"334 221 LINE",
"315 218 OFFCURVE",
"290 214 OFFCURVE",
"275 210 CURVE",
"262 351 LINE",
"257 404 LINE",
"198 187 LINE",
"154 172 OFFCURVE",
"104 146 OFFCURVE",
"76 129 CURVE",
"83 157 LINE SMOOTH",
"89 176 OFFCURVE",
"101 187 OFFCURVE",
"108 192 CURVE SMOOTH",
"114 196 OFFCURVE",
"117 209 OFFCURVE",
"119 215 CURVE SMOOTH",
"151 332 LINE",
"160 364 LINE",
"151 352 OFFCURVE",
"136 345 OFFCURVE",
"120 345 CURVE SMOOTH",
"103 345 OFFCURVE",
"85 353 OFFCURVE",
"70 368 CURVE SMOOTH",
"50 389 OFFCURVE",
"38 420 OFFCURVE",
"38 456 CURVE SMOOTH",
"38 492 OFFCURVE",
"52 528 OFFCURVE",
"77 556 CURVE SMOOTH",
"103 584 OFFCURVE",
"137 601 OFFCURVE",
"173 604 CURVE SMOOTH",
"214 608 OFFCURVE",
"252 598 OFFCURVE",
"281 575 CURVE SMOOTH",
"285 572 OFFCURVE",
"289 568 OFFCURVE",
"292 565 CURVE SMOOTH",
"316 541 OFFCURVE",
"331 509 OFFCURVE",
"334 471 CURVE",
"334 471 OFFCURVE",
"342 394 OFFCURVE",
"346 350 CURVE",
"520 655 LINE",
"632 682 LINE",
"628 666 LINE SMOOTH"
);
},
{
closed = 1;
nodes = (
"317 555 OFFCURVE",
"250 602 OFFCURVE",
"174 595 CURVE SMOOTH",
"103 588 OFFCURVE",
"48 526 OFFCURVE",
"48 456 CURVE SMOOTH",
"48 388 OFFCURVE",
"90 355 OFFCURVE",
"120 355 CURVE SMOOTH",
"143 355 OFFCURVE",
"162 373 OFFCURVE",
"162 396 CURVE SMOOTH",
"162 419 OFFCURVE",
"143 438 OFFCURVE",
"120 438 CURVE SMOOTH",
"112 438 OFFCURVE",
"104 435 OFFCURVE",
"97 431 CURVE",
"86 441 OFFCURVE",
"79 457 OFFCURVE",
"79 474 CURVE SMOOTH",
"79 519 OFFCURVE",
"114 558 OFFCURVE",
"161 562 CURVE SMOOTH",
"192 565 OFFCURVE",
"222 552 OFFCURVE",
"240 528 CURVE",
"189 516 LINE",
"183 493 OFFCURVE",
"209 506 OFFCURVE",
"204 487 CURVE SMOOTH",
"126 205 LINE SMOOTH",
"117 173 OFFCURVE",
"102 189 OFFCURVE",
"91 149 CURVE",
"119 165 OFFCURVE",
"154 182 OFFCURVE",
"189 194 CURVE",
"262 458 LINE",
"284 222 LINE",
"292 223 OFFCURVE",
"311 227 OFFCURVE",
"328 230 CURVE",
"488 510 LINE",
"437 325 LINE SMOOTH",
"419 262 OFFCURVE",
"453 187 OFFCURVE",
"532 205 CURVE",
"496 209 OFFCURVE",
"486 267 OFFCURVE",
"496 302 CURVE SMOOTH",
"587 628 LINE SMOOTH",
"593 647 OFFCURVE",
"611 642 OFFCURVE",
"618 669 CURVE",
"526 646 LINE",
"339 318 LINE",
"325 470 LINE SMOOTH"
);
}
);
width = 685;
}
);
unicode = 0059;
},
{
glyphname = Z;
lastChange = "2013-09-08 12:16:58 -0500";
layers = (
{
layerId = "D4A81252-B0CF-4F3E-9514-5651FCA26467";
name = Regular;
paths = (
{
closed = 1;
nodes = (
"446 247 LINE",
"414 247 LINE",
"412 254 OFFCURVE",
"344 543 OFFCURVE",
"344 543 CURVE SMOOTH",
"240 543 LINE SMOOTH",
"240 543 OFFCURVE",
"171 254 OFFCURVE",
"170 247 CURVE",
"145 247 LINE",
"145 648 LINE",
"199 648 LINE",
"199 717 LINE",
"23 717 LINE",
"23 648 LINE",
"74 648 LINE",
"74 244 LINE",
"20 244 LINE",
"20 174 LINE",
"152 174 LINE",
"149 165 OFFCURVE",
"130 80 OFFCURVE",
"128 74 CURVE",
"74 74 LINE",
"74 0 LINE",
"258 0 LINE",
"258 74 LINE",
"205 74 LINE",
"208 83 OFFCURVE",
"227 168 OFFCURVE",
"229 174 CURVE",
"355 174 LINE",
"356 168 OFFCURVE",
"376 83 OFFCURVE",
"378 74 CURVE",
"326 74 LINE",
"326 0 LINE",
"509 0 LINE",
"509 74 LINE",
"455 74 LINE",
"454 80 OFFCURVE",
"434 165 OFFCURVE",
"432 174 CURVE",
"520 174 LINE",
"520 321 LINE",
"446 321 LINE"
);
},
{
closed = 1;
nodes = (
"292 450 LINE",
"338 247 LINE",
"245 247 LINE"
);
}
);
width = 540;
}
);
unicode = 005A;
},
{
glyphname = a;
lastChange = "2013-09-08 12:13:34 -0500";
layers = (
{
layerId = "D4A81252-B0CF-4F3E-9514-5651FCA26467";
name = Regular;
paths = (
{
closed = 1;
nodes = (
"261 152 LINE",
"216 258 LINE",
"358 347 LINE",
"309 434 LINE",
"446 500 LINE",
"402 578 LINE",
"508 625 LINE",
"469 682 LINE",
"460 695 LINE",
"20 0 LINE",
"236 136 LINE"
);
},
{
closed = 1;
nodes = (
"386 148 LINE",
"468 216 LINE",
"525 146 LINE SMOOTH",
"525 146 OFFCURVE",
"500 229 OFFCURVE",
"498 237 CURVE",
"501 243 OFFCURVE",
"521 274 OFFCURVE",
"521 274 CURVE SMOOTH",
"432 274 LINE SMOOTH",
"432 274 OFFCURVE",
"439 248 OFFCURVE",
"440 242 CURVE"
);
},
{
closed = 1;
nodes = (
"666 696 LINE",
"476 697 LINE",
"485 682 LINE",
"527 618 LINE",
"422 571 LINE",
"467 494 LINE",
"330 428 LINE",
"376 343 LINE",
"234 254 LINE",
"278 146 LINE",
"65 15 LINE",
"42 0 LINE",
"331 0 LINE",
"285 94 LINE",
"481 421 LINE",
"523 421 LINE",
"597 91 LINE",
"531 0 LINE",
"821 0 LINE"
);
}
);
width = 841;
}
);
unicode = 0061;
},
{
glyphname = b;
lastChange = "2013-09-08 12:13:34 -0500";
layers = (
{
layerId = "D4A81252-B0CF-4F3E-9514-5651FCA26467";
name = Regular;
paths = (
{
closed = 1;
nodes = (
"529 73 OFFCURVE",
"485 196 OFFCURVE",
"449 204 CURVE",
"462 211 OFFCURVE",
"546 230 OFFCURVE",
"546 320 CURVE SMOOTH",
"546 418 OFFCURVE",
"456 449 OFFCURVE",
"365 449 CURVE SMOOTH",
"346 449 OFFCURVE",
"311 448 OFFCURVE",
"276 446 CURVE SMOOTH",
"231 443 OFFCURVE",
"208 441 OFFCURVE",
"173 438 CURVE",
"173 405 LINE",
"222 405 OFFCURVE",
"232 394 OFFCURVE",
"232 341 CURVE SMOOTH",
"232 278 LINE",
"165 292 OFFCURVE",
"121 366 OFFCURVE",
"121 471 CURVE SMOOTH",
"121 581 OFFCURVE",
"173 659 OFFCURVE",
"249 659 CURVE SMOOTH",
"278 659 OFFCURVE",
"303 647 OFFCURVE",
"323 627 CURVE SMOOTH",
"343 606 OFFCURVE",
"357 576 OFFCURVE",
"363 540 CURVE",
"390 540 LINE",
"385 689 LINE",
"364 689 LINE",
"362 681 OFFCURVE",
"359 679 OFFCURVE",
"354 679 CURVE SMOOTH",
"339 679 OFFCURVE",
"306 700 OFFCURVE",
"245 700 CURVE SMOOTH",
"179 700 OFFCURVE",
"122 676 OFFCURVE",
"83 633 CURVE SMOOTH",
"43 590 OFFCURVE",
"20 530 OFFCURVE",
"20 459 CURVE SMOOTH",
"20 410 OFFCURVE",
"34 354 OFFCURVE",
"67 310 CURVE SMOOTH",
"99 266 OFFCURVE",
"152 234 OFFCURVE",
"228 234 CURVE SMOOTH",
"232 234 LINE",
"232 95 LINE SMOOTH",
"232 44 OFFCURVE",
"221 33 OFFCURVE",
"173 33 CURVE",
"173 0 LINE",
"387 0 LINE",
"387 33 LINE",
"343 33 OFFCURVE",
"327 39 OFFCURVE",
"327 92 CURVE SMOOTH",
"327 186 LINE",
"356 186 LINE",
"356 186 OFFCURVE",
"466 0 OFFCURVE",
"469 0 CURVE SMOOTH",
"601 0 LINE",
"601 33 LINE",
"601 33 OFFCURVE",
"576 29 OFFCURVE",
"553 49 CURVE"
);
},
{
closed = 1;
nodes = (
"44 610 OFFCURVE",
"159 655 OFFCURVE",
"159 655 CURVE SMOOTH",
"159 655 OFFCURVE",
"98 596 OFFCURVE",
"98 471 CURVE SMOOTH",
"98 355 OFFCURVE",
"155 283 OFFCURVE",
"155 283 CURVE SMOOTH",
"155 283 OFFCURVE",
"43 311 OFFCURVE",
"44 463 CURVE SMOOTH"
);
},
{
closed = 1;
nodes = (
"255 33 LINE",
"255 411 LINE",
"304 414 LINE",
"304 33 LINE"
);
},
{
closed = 1;
nodes = (
"518 244 OFFCURVE",
"427 226 OFFCURVE",
"427 226 CURVE SMOOTH",
"427 226 OFFCURVE",
"460 246 OFFCURVE",
"460 318 CURVE SMOOTH",
"461 390 OFFCURVE",
"428 411 OFFCURVE",
"428 411 CURVE SMOOTH",
"428 411 OFFCURVE",
"517 403 OFFCURVE",
"517 319 CURVE SMOOTH"
);
},
{
closed = 1;
nodes = (
"327 244 LINE",
"333 244 LINE SMOOTH",
"340 244 OFFCURVE",
"346 244 OFFCURVE",
"351 242 CURVE",
"357 242 OFFCURVE",
"363 240 OFFCURVE",
"368 238 CURVE",
"370 243 LINE SMOOTH",
"386 292 OFFCURVE",
"400 344 OFFCURVE",
"404 385 CURVE",
"377 385 LINE",
"364 349 OFFCURVE",
"347 321 OFFCURVE",
"327 303 CURVE",
"327 415 LINE",
"354 415 LINE SMOOTH",
"409 415 OFFCURVE",
"438 379 OFFCURVE",
"438 323 CURVE SMOOTH",
"438 251 OFFCURVE",
"408 219 OFFCURVE",
"327 220 CURVE"
);
},
{
closed = 1;
nodes = (
"472 33 OFFCURVE",
"409 145 OFFCURVE",
"381 185 CURVE",
"381 185 OFFCURVE",
"402 189 OFFCURVE",
"412 192 CURVE SMOOTH",
"422 194 OFFCURVE",
"428 197 OFFCURVE",
"428 197 CURVE",
"453 185 OFFCURVE",
"488 130 OFFCURVE",
"507 85 CURVE",
"527 44 OFFCURVE",
"541 33 OFFCURVE",
"541 33 CURVE SMOOTH",
"472 33 LINE SMOOTH"
);
}
);
width = 621;
}
);
unicode = 0062;
},
{
glyphname = c;
lastChange = "2013-09-08 12:13:34 -0500";
layers = (
{
layerId = "D4A81252-B0CF-4F3E-9514-5651FCA26467";
name = Regular;
paths = (
{
closed = 1;
nodes = (
"231 318 LINE",
"231 318 OFFCURVE",
"320 312 OFFCURVE",
"348 329 CURVE",
"343 313 OFFCURVE",
"344 262 OFFCURVE",
"348 254 CURVE",
"313 272 OFFCURVE",
"231 265 OFFCURVE",
"231 265 CURVE",
"231 194 LINE",
"363 194 LINE",
"392 226 LINE",
"392 348 LINE",
"359 386 LINE",
"339 388 OFFCURVE",
"270 388 OFFCURVE",
"231 388 CURVE"
);
},
{
closed = 1;
nodes = (
"53 654 OFFCURVE",
"82 681 OFFCURVE",
"93 700 CURVE",
"119 688 OFFCURVE",
"363 689 OFFCURVE",
"391 700 CURVE",
"409 675 OFFCURVE",
"427 661 OFFCURVE",
"453 653 CURVE",
"450 629 OFFCURVE",
"451 620 OFFCURVE",
"459 601 CURVE",
"391 601 LINE",
"363 633 LINE",
"124 633 LINE",
"92 605 LINE",
"92 478 LINE",
"124 448 LINE",
"163 446 LINE",
"163 494 OFFCURVE",
"164 502 OFFCURVE",
"129 512 CURVE",
"141 535 OFFCURVE",
"143 538 OFFCURVE",
"146 566 CURVE",
"176 556 OFFCURVE",
"483 562 OFFCURVE",
"496 569 CURVE",
"494 539 OFFCURVE",
"511 482 OFFCURVE",
"522 461 CURVE",
"455 461 LINE",
"451 484 OFFCURVE",
"437 502 OFFCURVE",
"413 507 CURVE",
"231 507 LINE",
"231 446 LINE",
"231 446 OFFCURVE",
"373 442 OFFCURVE",
"391 449 CURVE",
"401 425 OFFCURVE",
"434 389 OFFCURVE",
"459 379 CURVE",
"451 330 OFFCURVE",
"452 245 OFFCURVE",
"459 194 CURVE",
"432 180 OFFCURVE",
"405 153 OFFCURVE",
"391 126 CURVE",
"358 136 OFFCURVE",
"231 131 OFFCURVE",
"231 131 CURVE",
"231 93 LINE",
"237 67 OFFCURVE",
"251 61 OFFCURVE",
"276 59 CURVE",
"276 59 OFFCURVE",
"256 22 OFFCURVE",
"255 0 CURVE",
"140 0 LINE",
"140 21 OFFCURVE",
"120 59 OFFCURVE",
"120 59 CURVE",
"142 60 OFFCURVE",
"160 73 OFFCURVE",
"163 93 CURVE",
"163 131 LINE",
"163 131 OFFCURVE",
"123 133 OFFCURVE",
"93 126 CURVE",
"83 147 OFFCURVE",
"50 184 OFFCURVE",
"25 194 CURVE",
"31 208 OFFCURVE",
"28 301 OFFCURVE",
"20 321 CURVE",
"93 321 LINE",
"92 226 LINE",
"121 194 LINE",
"163 194 LINE",
"163 388 LINE",
"163 388 OFFCURVE",
"126 390 OFFCURVE",
"93 388 CURVE",
"83 406 OFFCURVE",
"54 437 OFFCURVE",
"25 451 CURVE",
"34 485 OFFCURVE",
"35 608 OFFCURVE",
"25 640 CURVE"
);
}
);
width = 542;
}
);
unicode = 0063;
},
{
glyphname = d;
lastChange = "2013-09-08 12:13:34 -0500";
layers = (
{
layerId = "D4A81252-B0CF-4F3E-9514-5651FCA26467";
name = Regular;
paths = (
{
closed = 1;
nodes = (
"146 560 LINE SMOOTH",
"144 560 OFFCURVE",
"144 556 OFFCURVE",
"146 556 CURVE SMOOTH",
"148 556 OFFCURVE",
"179 553 OFFCURVE",
"179 525 CURVE SMOOTH",
"179 443 LINE",
"142 443 OFFCURVE",
"119 442 OFFCURVE",
"115 443 CURVE SMOOTH",
"101 443 OFFCURVE",
"98 454 OFFCURVE",
"98 461 CURVE SMOOTH",
"98 462 OFFCURVE",
"98 532 OFFCURVE",
"99 575 CURVE SMOOTH",
"99 611 OFFCURVE",
"118 629 OFFCURVE",
"152 629 CURVE SMOOTH",
"308 630 LINE SMOOTH",
"318 630 OFFCURVE",
"326 626 OFFCURVE",
"326 614 CURVE SMOOTH",
"326 603 OFFCURVE",
"313 599 OFFCURVE",
"311 598 CURVE",
"310 598 OFFCURVE",
"310 596 OFFCURVE",
"311 596 CURVE SMOOTH",
"403 596 LINE",
"402 626 LINE SMOOTH",
"401 648 OFFCURVE",
"387 700 OFFCURVE",
"319 700 CURVE SMOOTH",
"136 700 LINE SMOOTH",
"69 700 OFFCURVE",
"22 652 OFFCURVE",
"22 589 CURVE",
"23 587 LINE",
"22 549 OFFCURVE",
"21 496 OFFCURVE",
"21 462 CURVE SMOOTH",
"21 419 OFFCURVE",
"58 376 OFFCURVE",
"109 376 CURVE SMOOTH",
"312 376 LINE SMOOTH",
"326 376 OFFCURVE",
"330 363 OFFCURVE",
"330 358 CURVE SMOOTH",
"330 356 OFFCURVE",
"331 293 OFFCURVE",
"331 247 CURVE",
"330 247 LINE",
"330 218 OFFCURVE",
"311 195 OFFCURVE",
"281 195 CURVE SMOOTH",
"251 195 LINE",
"251 347 LINE",
"179 348 LINE",
"179 195 LINE",
"142 195 OFFCURVE",
"117 194 OFFCURVE",
"114 194 CURVE SMOOTH",
"99 194 OFFCURVE",
"96 207 OFFCURVE",
"96 213 CURVE SMOOTH",
"96 282 LINE SMOOTH",
"96 302 OFFCURVE",
"125 308 OFFCURVE",
"125 308 CURVE",
"124 310 LINE",
"20 310 LINE",
"20 204 LINE SMOOTH",
"20 166 OFFCURVE",
"51 124 OFFCURVE",
"97 124 CURVE SMOOTH",
"178 124 LINE",
"177 49 LINE SMOOTH",
"177 20 OFFCURVE",
"159 7 OFFCURVE",
"143 2 CURVE",
"142 2 OFFCURVE",
"142 0 OFFCURVE",
"143 0 CURVE SMOOTH",
"389 0 LINE SMOOTH",
"490 0 OFFCURVE",
"546 49 OFFCURVE",
"546 149 CURVE SMOOTH",
"546 412 LINE SMOOTH",
"546 512 OFFCURVE",
"490 560 OFFCURVE",
"390 560 CURVE SMOOTH"
);
},
{
closed = 1;
nodes = (
"476 137 LINE SMOOTH",
"476 91 OFFCURVE",
"440 67 OFFCURVE",
"394 67 CURVE SMOOTH",
"342 67 OFFCURVE",
"251 66 OFFCURVE",
"251 66 CURVE",
"252 124 LINE",
"289 124 LINE SMOOTH",
"356 124 OFFCURVE",
"400 172 OFFCURVE",
"400 236 CURVE",
"399 236 LINE",
"403 305 OFFCURVE",
"401 355 OFFCURVE",
"401 363 CURVE SMOOTH",
"401 390 OFFCURVE",
"379 443 OFFCURVE",
"314 443 CURVE SMOOTH",
"253 443 LINE",
"253 498 LINE",
"397 498 LINE SMOOTH",
"445 498 OFFCURVE",
"476 464 OFFCURVE",
"476 419 CURVE SMOOTH"
);
}
);
width = 566;
}
);
unicode = 0064;
},
{
glyphname = e;
lastChange = "2013-09-08 12:13:34 -0500";
layers = (
{
layerId = "D4A81252-B0CF-4F3E-9514-5651FCA26467";
name = Regular;
paths = (
{
closed = 1;
nodes = (
"595 322 OFFCURVE",
"472 259 OFFCURVE",
"460 418 CURVE SMOOTH",
"449 563 OFFCURVE",
"447 587 OFFCURVE",
"412 608 CURVE",
"405 680 LINE SMOOTH",
"403 690 OFFCURVE",
"393 699 OFFCURVE",
"380 698 CURVE SMOOTH",
"272 684 LINE SMOOTH",
"263 683 OFFCURVE",
"255 675 OFFCURVE",
"254 665 CURVE",
"258 665 OFFCURVE",
"362 626 OFFCURVE",
"364 624 CURVE",
"364 624 OFFCURVE",
"374 619 OFFCURVE",
"374 617 CURVE",
"374 617 OFFCURVE",
"377 613 OFFCURVE",
"377 609 CURVE SMOOTH",
"377 605 OFFCURVE",
"376 590 OFFCURVE",
"374 587 CURVE",
"374 587 OFFCURVE",
"355 533 OFFCURVE",
"353 525 CURVE",
"356 516 OFFCURVE",
"358 507 OFFCURVE",
"358 499 CURVE SMOOTH",
"358 472 OFFCURVE",
"340 444 OFFCURVE",
"327 418 CURVE SMOOTH",
"322 407 OFFCURVE",
"316 398 OFFCURVE",
"311 387 CURVE SMOOTH",
"290 333 OFFCURVE",
"279 300 OFFCURVE",
"279 278 CURVE SMOOTH",
"279 265 OFFCURVE",
"282 257 OFFCURVE",
"288 249 CURVE",
"288 263 OFFCURVE",
"291 274 OFFCURVE",
"292 279 CURVE",
"306 275 OFFCURVE",
"347 262 OFFCURVE",
"370 258 CURVE",
"370 258 OFFCURVE",
"368 216 OFFCURVE",
"374 184 CURVE",
"376 183 OFFCURVE",
"378 180 OFFCURVE",
"380 178 CURVE",
"382 177 OFFCURVE",
"385 175 OFFCURVE",
"386 173 CURVE",
"434 171 OFFCURVE",
"489 159 OFFCURVE",
"525 146 CURVE SMOOTH",
"581 128 OFFCURVE",
"677 118 OFFCURVE",
"728 156 CURVE",
"743 164 OFFCURVE",
"724 231 OFFCURVE",
"665 272 CURVE SMOOTH"
);
},
{
closed = 1;
nodes = (
"696 157 OFFCURVE",
"673 151 OFFCURVE",
"647 149 CURVE",
"641 148 OFFCURVE",
"638 151 OFFCURVE",
"637 155 CURVE",
"618 206 LINE",
"616 209 OFFCURVE",
"616 214 OFFCURVE",
"621 216 CURVE",
"664 235 LINE SMOOTH",
"668 237 OFFCURVE",
"674 242 OFFCURVE",
"679 236 CURVE SMOOTH",
"704 209 OFFCURVE",
"715 179 OFFCURVE",
"715 169 CURVE SMOOTH"
);
},
{
closed = 1;
nodes = (
"368 171 OFFCURVE",
"336 197 OFFCURVE",
"294 227 CURVE SMOOTH",
"252 255 OFFCURVE",
"262 298 OFFCURVE",
"299 393 CURVE SMOOTH",
"318 434 OFFCURVE",
"362 488 OFFCURVE",
"336 524 CURVE",
"362 590 LINE SMOOTH",
"366 601 OFFCURVE",
"361 614 OFFCURVE",
"347 618 CURVE SMOOTH",
"247 654 LINE SMOOTH",
"236 658 OFFCURVE",
"224 652 OFFCURVE",
"221 641 CURVE SMOOTH",
"196 573 LINE",
"177 569 OFFCURVE",
"161 542 OFFCURVE",
"141 480 CURVE SMOOTH",
"113 394 OFFCURVE",
"97 322 OFFCURVE",
"57 282 CURVE SMOOTH",
"3 223 OFFCURVE",
"-3 144 OFFCURVE",
"114 122 CURVE SMOOTH",
"183 110 OFFCURVE",
"263 39 OFFCURVE",
"330 11 CURVE SMOOTH",
"346 5 OFFCURVE",
"374 -9 OFFCURVE",
"460 13 CURVE",
"478 16 OFFCURVE",
"470 99 OFFCURVE",
"374 167 CURVE SMOOTH"
);
},
{
closed = 1;
nodes = (
"71 151 OFFCURVE",
"48 165 OFFCURVE",
"41 187 CURVE SMOOTH",
"34 209 OFFCURVE",
"43 236 OFFCURVE",
"66 263 CURVE",
"92 254 OFFCURVE",
"113 241 OFFCURVE",
"130 231 CURVE",
"120 207 OFFCURVE",
"110 176 OFFCURVE",
"108 143 CURVE"
);
},
{
closed = 1;
nodes = (
"418 21 OFFCURVE",
"395 19 OFFCURVE",
"379 19 CURVE SMOOTH",
"374 19 OFFCURVE",
"368 21 OFFCURVE",
"368 29 CURVE SMOOTH",
"362 81 LINE",
"362 87 OFFCURVE",
"364 91 OFFCURVE",
"370 91 CURVE SMOOTH",
"386 91 OFFCURVE",
"405 93 OFFCURVE",
"410 95 CURVE SMOOTH",
"419 98 OFFCURVE",
"421 96 OFFCURVE",
"422 95 CURVE",
"442 67 OFFCURVE",
"449 42 OFFCURVE",
"449 31 CURVE SMOOTH"
);
}
);
width = 752.901;
}
);
unicode = 0065;
},
{
glyphname = z;
lastChange = "2013-09-08 12:13:34 -0500";
layers = (
{
layerId = "D4A81252-B0CF-4F3E-9514-5651FCA26467";
name = Regular;
paths = (
{
closed = 1;
nodes = (
"972 494 OFFCURVE",
"958 500 OFFCURVE",
"943 500 CURVE SMOOTH",
"701 500 LINE",
"840 267 LINE",
"853 266 LINE",
"860 256 LINE",
"860 245 LINE",
"869 244 LINE",
"877 233 LINE",
"877 224 LINE",
"886 221 LINE",
"886 221 OFFCURVE",
"896 212 OFFCURVE",
"896 211 CURVE",
"896 212 OFFCURVE",
"896 190 OFFCURVE",
"896 190 CURVE SMOOTH",
"896 190 OFFCURVE",
"915 172 OFFCURVE",
"932 165 CURVE SMOOTH",
"945 160 OFFCURVE",
"946 141 OFFCURVE",
"953 130 CURVE SMOOTH",
"962 115 OFFCURVE",
"975 108 OFFCURVE",
"973 100 CURVE SMOOTH",
"967 77 OFFCURVE",
"943 39 OFFCURVE",
"921 37 CURVE",
"921 37 OFFCURVE",
"867 37 OFFCURVE",
"836 37 CURVE",
"836 0 LINE",
"943 0 LINE SMOOTH",
"974 0 OFFCURVE",
"999 25 OFFCURVE",
"999 56 CURVE SMOOTH",
"999 444 LINE SMOOTH",
"999 459 OFFCURVE",
"994 474 OFFCURVE",
"983 484 CURVE SMOOTH"
);
},
{
closed = 1;
nodes = (
"76 500 LINE SMOOTH",
"61 500 OFFCURVE",
"48 494 OFFCURVE",
"36 484 CURVE SMOOTH",
"26 474 OFFCURVE",
"20 459 OFFCURVE",
"20 444 CURVE SMOOTH",
"20 56 LINE SMOOTH",
"20 41 OFFCURVE",
"26 28 OFFCURVE",
"36 16 CURVE SMOOTH",
"48 6 OFFCURVE",
"61 0 OFFCURVE",
"76 0 CURVE SMOOTH",
"428 0 LINE",
"420 15 OFFCURVE",
"409 31 OFFCURVE",
"406 37 CURVE",
"364 37 LINE",
"364 141 OFFCURVE",
"400 198 OFFCURVE",
"442 210 CURVE",
"447 211 OFFCURVE",
"445 240 OFFCURVE",
"438 248 CURVE",
"438 248 OFFCURVE",
"417 248 OFFCURVE",
"413 249 CURVE SMOOTH",
"408 250 OFFCURVE",
"412 256 OFFCURVE",
"412 256 CURVE",
"431 297 LINE",
"429 309 LINE",
"356 309 LINE SMOOTH",
"355 309 OFFCURVE",
"416 351 OFFCURVE",
"416 351 CURVE",
"419 462 OFFCURVE",
"532 470 OFFCURVE",
"601 425 CURVE SMOOTH",
"641 397 OFFCURVE",
"644 344 OFFCURVE",
"641 308 CURVE",
"641 305 OFFCURVE",
"631 306 OFFCURVE",
"631 306 CURVE SMOOTH",
"631 306 OFFCURVE",
"624 266 OFFCURVE",
"641 266 CURVE SMOOTH",
"722 266 LINE SMOOTH",
"754 267 OFFCURVE",
"785 245 OFFCURVE",
"785 245 CURVE",
"793 273 LINE",
"618 500 LINE"
);
},
{
closed = 1;
nodes = (
"116 79 OFFCURVE",
"98 97 OFFCURVE",
"98 119 CURVE",
"97 139 OFFCURVE",
"116 157 OFFCURVE",
"136 157 CURVE SMOOTH",
"158 157 OFFCURVE",
"176 139 OFFCURVE",
"176 119 CURVE SMOOTH",
"176 97 OFFCURVE",
"158 79 OFFCURVE",
"136 79 CURVE SMOOTH"
);
}
);
width = 1019;
}
);
unicode = 007A;
},
